<?xml version="1.0" encoding="UTF-8"?>
<!DOCTYPE svg PUBLIC "-//W3C//DTD SVG 1.1//EN" "http://www.w3.org/Graphics/SVG/1.1/DTD/svg11.dtd">
<svg xmlns="http://www.w3.org/2000/svg" version="1.1" width="905px" height="875px" style="shape-rendering:geometricPrecision; text-rendering:geometricPrecision; image-rendering:optimizeQuality; fill-rule:evenodd; clip-rule:evenodd" xmlns:xlink="http://www.w3.org/1999/xlink">
<g><path style="opacity:0.987" fill="#c6cfd4" d="M 450.5,14.5 C 451.497,14.4701 452.164,14.9701 452.5,16C 487.809,123.425 522.809,230.925 557.5,338.5C 671.502,338.167 785.502,338.5 899.5,339.5C 807.108,406.023 715.108,473.023 623.5,540.5C 658.8,647.568 693.8,754.735 728.5,862C 728.167,862.5 727.833,863 727.5,863.5C 635.5,797.167 543.5,730.833 451.5,664.5C 359.5,730.833 267.5,797.167 175.5,863.5C 175.167,863 174.833,862.5 174.5,862C 209.2,754.735 244.2,647.568 279.5,540.5C 187.892,473.023 95.8923,406.023 3.5,339.5C 117.498,338.5 231.498,338.167 345.5,338.5C 380.5,230.5 415.5,122.5 450.5,14.5 Z"/></g>
<g><path style="opacity:1" fill="#fefdfd" d="M 450.5,85.5 C 451.497,85.4701 452.164,85.9701 452.5,87C 482.555,178.056 512.221,269.222 541.5,360.5C 638.167,360.333 734.834,360.5 831.5,361C 756.677,415.578 681.677,469.911 606.5,524C 603.14,526.366 600.14,529.033 597.5,532C 628.035,623.268 657.535,714.768 686,806.5C 607.973,749.64 529.807,692.973 451.5,636.5C 373.193,692.973 295.027,749.64 217,806.5C 245.461,714.779 274.961,623.279 305.5,532C 302.86,529.033 299.86,526.366 296.5,524C 221.323,469.911 146.323,415.578 71.5,361C 168.166,360.5 264.833,360.333 361.5,360.5C 391.321,268.881 420.988,177.214 450.5,85.5 Z"/></g>
<g><path style="opacity:1" fill="#174789" d="M 120.5,377.5 C 204.833,376.833 289.167,376.167 373.5,375.5C 398.696,295.577 424.696,215.911 451.5,136.5C 465.262,175.95 478.095,215.617 490,255.5C 478.502,242.319 467.169,242.319 456,255.5C 454.661,260.736 454.161,266.07 454.5,271.5C 452.856,271.286 451.356,271.62 450,272.5C 449.015,277.974 449.848,283.141 452.5,288C 452.147,291.959 451.313,295.792 450,299.5C 448.2,301.317 446.034,302.484 443.5,303C 436.154,303.907 428.821,304.907 421.5,306C 415.57,307.922 410.737,311.422 407,316.5C 403.159,322.178 399.826,328.178 397,334.5C 391.608,347.617 385.942,360.617 380,373.5C 375.239,382.515 375.406,391.349 380.5,400C 385.155,400.499 389.821,400.666 394.5,400.5C 394.66,402.199 394.494,403.866 394,405.5C 388.502,410.977 385.502,417.644 385,425.5C 383.796,434.107 384.796,442.441 388,450.5C 393.38,460.592 398.213,470.926 402.5,481.5C 405.562,482.87 408.729,483.87 412,484.5C 426.984,513.49 447.151,538.323 472.5,559C 479.042,563.432 485.375,568.099 491.5,573C 492.971,576.109 494.305,579.276 495.5,582.5C 493.744,584.191 493.244,586.191 494,588.5C 497.349,595.198 500.682,601.864 504,608.5C 504.66,611.047 504.493,613.547 503.5,616C 503.946,617.726 504.779,619.226 506,620.5C 506.289,629.362 505.789,638.196 504.5,647C 504.555,649.557 504.888,652.057 505.5,654.5C 504.998,655.521 504.332,655.688 503.5,655C 486.343,642.255 469.01,629.755 451.5,617.5C 382.99,666.588 314.657,715.922 246.5,765.5C 271.793,685.614 297.793,605.614 324.5,525.5C 256.762,475.755 188.762,426.422 120.5,377.5 Z"/></g>
<g><path style="opacity:1" fill="#dd1b32" d="M 530.5,375.5 C 614.5,376.167 698.5,376.833 782.5,377.5C 714.238,426.422 646.238,475.755 578.5,525.5C 605.207,605.614 631.207,685.614 656.5,765.5C 609.36,731.527 562.36,697.36 515.5,663C 522.021,659.46 525.021,653.96 524.5,646.5C 521.72,630.811 518.72,615.144 515.5,599.5C 517.1,592.891 517.933,586.224 518,579.5C 515.73,574.902 513.063,570.569 510,566.5C 508.038,553.428 505.704,540.428 503,527.5C 498.667,518.833 494.333,510.167 490,501.5C 488.154,490.201 486.488,478.868 485,467.5C 483.634,460.37 481.801,453.37 479.5,446.5C 480.611,445.389 481.278,444.055 481.5,442.5C 478.311,430.409 474.811,418.409 471,406.5C 468.579,403.595 466.412,400.595 464.5,397.5C 467.365,388.741 470.531,380.074 474,371.5C 478.006,366.757 482.84,364.09 488.5,363.5C 490.861,375.522 493.361,387.522 496,399.5C 501.068,409.632 505.568,419.965 509.5,430.5C 492.146,436.186 484.646,448.186 487,466.5C 492.818,484.833 505.318,492.666 524.5,490C 544.259,482.647 551.426,468.814 546,448.5C 543.894,445.392 542.228,442.059 541,438.5C 538.103,437.477 535.936,435.643 534.5,433C 531.22,432.595 528.72,431.095 527,428.5C 526.432,422.426 525.432,416.426 524,410.5C 520.441,403.384 517.441,396.051 515,388.5C 512.271,376.662 510.938,364.662 511,352.5C 509.026,336.537 500.86,325.037 486.5,318C 483.455,313.964 479.455,311.13 474.5,309.5C 473.386,308.277 473.219,306.944 474,305.5C 478.487,302.173 481.654,297.839 483.5,292.5C 488.11,289.269 490.61,284.936 491,279.5C 490.5,279 490,278.5 489.5,278C 491.837,274.161 493.337,269.994 494,265.5C 505.903,302.375 518.069,339.041 530.5,375.5 Z"/></g>
<g><path style="opacity:1" fill="#98adca" d="M 373.5,375.5 C 289.167,376.167 204.833,376.833 120.5,377.5C 119.711,377.217 119.044,376.717 118.5,376C 203.499,375.5 288.499,375.333 373.5,375.5 Z"/></g>
<g><path style="opacity:1" fill="#f09aa5" d="M 530.5,375.5 C 615.167,375.333 699.834,375.5 784.5,376C 783.956,376.717 783.289,377.217 782.5,377.5C 698.5,376.833 614.5,376.167 530.5,375.5 Z"/></g>
</svg>
