<?xml version="1.0" encoding="UTF-8"?>
<!DOCTYPE svg PUBLIC "-//W3C//DTD SVG 1.1//EN" "http://www.w3.org/Graphics/SVG/1.1/DTD/svg11.dtd">
<svg xmlns="http://www.w3.org/2000/svg" version="1.1" width="284px" height="538px" style="shape-rendering:geometricPrecision; text-rendering:geometricPrecision; image-rendering:optimizeQuality; fill-rule:evenodd; clip-rule:evenodd" xmlns:xlink="http://www.w3.org/1999/xlink">
<g><path style="opacity:0.745" fill="#d1af7b" d="M 157.5,0.5 C 157.082,1.22158 156.416,1.72158 155.5,2C 152.854,2.49742 150.187,2.66409 147.5,2.5C 150.544,0.988643 153.878,0.321976 157.5,0.5 Z"/></g>
<g><path style="opacity:0.573" fill="#ebc89f" d="M 147.5,2.5 C 145.898,4.07394 143.898,4.74061 141.5,4.5C 143.102,2.92606 145.102,2.25939 147.5,2.5 Z"/></g>
<g><path style="opacity:0.761" fill="#c5a170" d="M 196.5,1.5 C 200.534,1.51652 204.201,2.51652 207.5,4.5C 203.294,5.05502 199.627,4.05502 196.5,1.5 Z"/></g>
<g><path style="opacity:1" fill="#fcb107" d="M 196.5,13.5 C 184.822,21.6766 172.488,28.8432 159.5,35C 154.636,37.1072 149.636,38.6072 144.5,39.5C 143.1,30.9336 141.434,22.4336 139.5,14C 139.833,12.8333 140.167,11.6667 140.5,10.5C 141.739,10.0576 142.739,9.39092 143.5,8.5C 150.11,7.14517 156.777,5.9785 163.5,5C 176.094,3.74499 188.427,4.91166 200.5,8.5C 199.143,10.1856 197.81,11.8523 196.5,13.5 Z"/></g>
<g><path style="opacity:0.796" fill="#ba975f" d="M 141.5,4.5 C 138.032,7.22812 134.032,8.89478 129.5,9.5C 133.111,7.0692 137.111,5.40254 141.5,4.5 Z"/></g>
<g><path style="opacity:1" fill="#fdb106" d="M 239.5,50.5 C 218.824,46.448 198.157,46.6146 177.5,51C 168.122,53.3948 158.788,55.8948 149.5,58.5C 148.661,54.1448 147.661,49.8115 146.5,45.5C 157.338,40.0809 168.338,34.5809 179.5,29C 187.92,24.0704 195.586,18.2371 202.5,11.5C 203.756,11.0962 204.923,10.4295 206,9.5C 211.015,10.715 215.349,13.0483 219,16.5C 228.136,26.4387 234.97,37.772 239.5,50.5 Z"/></g>
<g><path style="opacity:1" fill="#b07f40" d="M 207.5,4.5 C 218.644,7.40527 228.644,12.4053 237.5,19.5C 235.801,19.6602 234.134,19.4935 232.5,19C 223.408,14.987 215.075,10.1537 207.5,4.5 Z"/></g>
<g><path style="opacity:0.965" fill="#b58c56" d="M 129.5,9.5 C 129.5,10.1667 129.5,10.8333 129.5,11.5C 121.996,16.0865 114.329,20.4199 106.5,24.5C 112.963,17.7613 120.63,12.7613 129.5,9.5 Z"/></g>
<g><path style="opacity:0.867" fill="#ac8045" d="M 237.5,19.5 C 242.46,22.7923 246.793,26.7923 250.5,31.5C 246.766,29.446 243.099,27.446 239.5,25.5C 238.833,23.5 238.167,21.5 237.5,19.5 Z"/></g>
<g><path style="opacity:0.29" fill="#e1c69b" d="M 106.5,24.5 C 102.833,28.8333 98.8333,32.8333 94.5,36.5C 97.5,31.5 101.5,27.5 106.5,24.5 Z"/></g>
<g><path style="opacity:0.529" fill="#ddbc8f" d="M 94.5,36.5 C 93.9202,38.7488 92.5869,40.4154 90.5,41.5C 91.0798,39.2512 92.4131,37.5846 94.5,36.5 Z"/></g>
<g><path style="opacity:1" fill="#99631c" d="M 250.5,31.5 C 253.903,33.8998 256.57,36.8998 258.5,40.5C 261.004,45.5146 264.004,50.1813 267.5,54.5C 269.105,57.3777 270.439,60.3777 271.5,63.5C 265.279,54.7708 258.779,46.1041 252,37.5C 251.495,35.4817 250.995,33.4817 250.5,31.5 Z"/></g>
<g><path style="opacity:1" fill="#ad6505" d="M 157.5,0.5 C 170.579,0.18634 183.579,0.519673 196.5,1.5C 199.627,4.05502 203.294,5.05502 207.5,4.5C 215.075,10.1537 223.408,14.987 232.5,19C 234.134,19.4935 235.801,19.6602 237.5,19.5C 238.167,21.5 238.833,23.5 239.5,25.5C 243.099,27.446 246.766,29.446 250.5,31.5C 250.995,33.4817 251.495,35.4817 252,37.5C 258.779,46.1041 265.279,54.7708 271.5,63.5C 271.5,63.8333 271.5,64.1667 271.5,64.5C 272.873,69.312 273.707,74.312 274,79.5C 275.632,83.346 276.966,87.346 278,91.5C 278.713,102.522 278.547,113.522 277.5,124.5C 276.851,132.783 274.518,140.45 270.5,147.5C 269.1,150.409 267.1,152.909 264.5,155C 263.852,156.44 263.519,157.94 263.5,159.5C 262.5,159.5 261.5,159.5 260.5,159.5C 260.66,161.199 260.494,162.866 260,164.5C 256.864,169.526 252.698,173.36 247.5,176C 248.711,176.893 248.711,177.726 247.5,178.5C 246.575,177.359 245.741,177.359 245,178.5C 244.51,179.793 244.343,181.127 244.5,182.5C 243.167,182.5 241.833,182.5 240.5,182.5C 240.78,185.388 239.447,186.888 236.5,187C 235.252,188.4 234.252,189.9 233.5,191.5C 230.722,191.022 228.722,192.022 227.5,194.5C 224.244,196.297 220.911,197.797 217.5,199C 215.157,201.544 212.49,203.378 209.5,204.5C 199.835,203.722 190.169,202.889 180.5,202C 144.167,201.333 107.833,201.333 71.5,202C 58.1479,202.482 44.9812,203.982 32,206.5C 31.51,207.793 31.3433,209.127 31.5,210.5C 29.3449,209.448 29.0116,210.114 30.5,212.5C 30.0623,213.506 29.3957,213.506 28.5,212.5C 27.048,209.718 27.3813,207.218 29.5,205C 35.5358,203.17 41.5358,201.67 47.5,200.5C 52.1667,199.833 56.8333,199.167 61.5,198.5C 62.8333,198.5 64.1667,198.5 65.5,198.5C 84.1696,198.667 102.836,198.5 121.5,198C 125.542,196.313 129.542,196.313 133.5,198C 155.518,198.461 177.518,199.295 199.5,200.5C 206.548,200.148 213.214,198.315 219.5,195C 239.278,184.555 254.445,169.389 265,149.5C 266.274,145.846 267.44,142.18 268.5,138.5C 278.865,108.322 276.032,79.322 260,51.5C 256.045,45.8767 251.712,40.5434 247,35.5C 246.333,36.1667 246.333,36.8333 247,37.5C 253.067,43.3666 257.234,50.0333 259.5,57.5C 253.088,54.3631 246.422,52.0298 239.5,50.5C 234.97,37.772 228.136,26.4387 219,16.5C 215.349,13.0483 211.015,10.715 206,9.5C 204.923,10.4295 203.756,11.0962 202.5,11.5C 200.685,12.6298 198.685,13.2964 196.5,13.5C 197.81,11.8523 199.143,10.1856 200.5,8.5C 188.427,4.91166 176.094,3.74499 163.5,5C 156.777,5.9785 150.11,7.14517 143.5,8.5C 143.083,7.87605 142.416,7.54272 141.5,7.5C 137.667,9.42097 133.667,10.7543 129.5,11.5C 129.5,10.8333 129.5,10.1667 129.5,9.5C 134.032,8.89478 138.032,7.22812 141.5,4.5C 143.898,4.74061 145.898,4.07394 147.5,2.5C 150.187,2.66409 152.854,2.49742 155.5,2C 156.416,1.72158 157.082,1.22158 157.5,0.5 Z"/></g>
<g><path style="opacity:0.886" fill="#745534" d="M 258.5,40.5 C 262.568,44.2389 265.901,48.5722 268.5,53.5C 267.833,53.5 267.5,53.8333 267.5,54.5C 264.004,50.1813 261.004,45.5146 258.5,40.5 Z"/></g>
<g><path style="opacity:1" fill="#fdb104" d="M 187.5,53.5 C 198.603,53.6893 209.603,53.6893 220.5,53.5C 226.646,54.2242 232.646,54.8909 238.5,55.5C 240.538,61.0788 242.038,66.7455 243,72.5C 243.5,79.1583 243.666,85.825 243.5,92.5C 242.426,100.639 240.759,108.639 238.5,116.5C 237.883,116.611 237.383,116.944 237,117.5C 230.5,111 224,104.5 217.5,98C 206.364,88.7654 193.698,82.7654 179.5,80C 171.227,79.663 163.06,79.4964 155,79.5C 154.13,74.7602 152.964,70.0935 151.5,65.5C 151.57,64.2284 151.903,63.0617 152.5,62C 163.779,57.7638 175.446,54.9305 187.5,53.5 Z"/></g>
<g><path style="opacity:1" fill="#b26600" d="M 143.5,8.5 C 142.739,9.39092 141.739,10.0576 140.5,10.5C 140.167,11.6667 139.833,12.8333 139.5,14C 141.434,22.4336 143.1,30.9336 144.5,39.5C 149.636,38.6072 154.636,37.1072 159.5,35C 172.488,28.8432 184.822,21.6766 196.5,13.5C 198.685,13.2964 200.685,12.6298 202.5,11.5C 195.586,18.2371 187.92,24.0704 179.5,29C 168.338,34.5809 157.338,40.0809 146.5,45.5C 147.661,49.8115 148.661,54.1448 149.5,58.5C 158.788,55.8948 168.122,53.3948 177.5,51C 198.157,46.6146 218.824,46.448 239.5,50.5C 239.5,51.5 239.5,52.5 239.5,53.5C 229.729,52.0974 219.896,51.4307 210,51.5C 202.266,51.2859 194.766,51.9526 187.5,53.5C 175.446,54.9305 163.779,57.7638 152.5,62C 151.903,63.0617 151.57,64.2284 151.5,65.5C 152.964,70.0935 154.13,74.7602 155,79.5C 163.06,79.4964 171.227,79.663 179.5,80C 193.698,82.7654 206.364,88.7654 217.5,98C 224,104.5 230.5,111 237,117.5C 237.383,116.944 237.883,116.611 238.5,116.5C 238.833,117.833 239.167,119.167 239.5,120.5C 238.542,120.047 237.708,119.381 237,118.5C 236.581,119.672 235.915,120.672 235,121.5C 223.567,107.724 210.067,96.5577 194.5,88C 182.252,82.327 169.585,81.1603 156.5,84.5C 164.257,112.678 172.59,140.678 181.5,168.5C 180.349,169.731 179.183,169.731 178,168.5C 176.766,164.285 175.266,160.285 173.5,156.5C 166.9,133.035 159.9,109.702 152.5,86.5C 145.864,87.9718 140.364,91.3052 136,96.5C 133.59,99.3968 131.423,102.397 129.5,105.5C 122.253,117.748 118.086,131.082 117,145.5C 116.5,152.492 116.334,159.492 116.5,166.5C 115.5,166.5 114.5,166.5 113.5,166.5C 113.5,169.5 113.5,172.5 113.5,175.5C 112.77,171.939 112.103,168.273 111.5,164.5C 111.569,147.023 114.735,130.023 121,113.5C 125.973,102.2 133.473,93.0336 143.5,86C 145.909,84.2932 148.575,83.4598 151.5,83.5C 150.954,76.9842 149.62,70.6509 147.5,64.5C 121.817,70.9237 101.317,84.9237 86,106.5C 81.9296,113.475 79.4296,120.975 78.5,129C 78.8096,133.062 79.8096,136.895 81.5,140.5C 80.7784,140.918 80.2784,141.584 80,142.5C 78.5736,137.948 77.5736,133.281 77,128.5C 75.4309,127.286 74.5976,125.619 74.5,123.5C 72.7589,111.569 72.0922,99.5686 72.5,87.5C 74.1678,80.3181 76.1678,73.1514 78.5,66C 82.0841,58.156 86.4174,50.8227 91.5,44C 90.7476,43.3292 90.4142,42.4959 90.5,41.5C 92.5869,40.4154 93.9202,38.7488 94.5,36.5C 98.8333,32.8333 102.833,28.8333 106.5,24.5C 114.329,20.4199 121.996,16.0865 129.5,11.5C 133.667,10.7543 137.667,9.42097 141.5,7.5C 142.416,7.54272 143.083,7.87605 143.5,8.5 Z"/></g>
<g><path style="opacity:1" fill="#fcb107" d="M 139.5,45.5 C 141.124,45.3601 142.29,46.0267 143,47.5C 143.629,51.0516 144.462,54.5516 145.5,58C 145.167,58.8333 144.833,59.6667 144.5,60.5C 121.406,68.1287 101.906,81.1287 86,99.5C 81.8428,106.146 78.5095,113.146 76,120.5C 72.3473,95.4185 77.1806,72.0851 90.5,50.5C 107.174,51.2661 123.508,49.5995 139.5,45.5 Z"/></g>
<g><path style="opacity:1" fill="#fbb00b" d="M 134.5,12.5 C 137.273,21.2545 139.606,30.2545 141.5,39.5C 141.167,40.1667 140.833,40.8333 140.5,41.5C 125.474,46.2615 110.141,47.5948 94.5,45.5C 96.473,42.3603 98.6397,39.3603 101,36.5C 105.441,33.0632 109.607,29.2298 113.5,25C 120.265,20.2902 127.265,16.1235 134.5,12.5 Z"/></g>
<g><path style="opacity:1" fill="#ad7e3e" d="M 90.5,41.5 C 90.4142,42.4959 90.7476,43.3292 91.5,44C 86.4174,50.8227 82.0841,58.156 78.5,66C 76.1678,73.1514 74.1678,80.3181 72.5,87.5C 71.8333,88.8333 71.1667,90.1667 70.5,91.5C 70.1977,87.2095 70.8643,83.2095 72.5,79.5C 74.2766,76.4954 75.2766,73.1621 75.5,69.5C 78.4338,58.9603 83.4338,49.627 90.5,41.5 Z"/></g>
<g><path style="opacity:1" fill="#ab6102" d="M 264.5,66.5 C 263.853,67.2739 263.52,68.2739 263.5,69.5C 266.438,85.2762 266.105,100.943 262.5,116.5C 261.315,117.853 259.981,119.02 258.5,120C 259.022,120.561 259.355,121.228 259.5,122C 259.186,127.252 257.686,132.086 255,136.5C 254.346,135.304 253.846,135.304 253.5,136.5C 254.309,138.071 254.643,139.738 254.5,141.5C 249.748,134.332 244.748,127.332 239.5,120.5C 239.167,119.167 238.833,117.833 238.5,116.5C 240.759,108.639 242.426,100.639 243.5,92.5C 245.241,80.4825 244.574,68.4825 241.5,56.5C 244.19,55.3977 246.857,55.5644 249.5,57C 253.749,59.1935 258.082,61.1935 262.5,63C 263.305,64.1127 263.972,65.2794 264.5,66.5 Z"/></g>
<g><path style="opacity:1" fill="#fdb106" d="M 111.5,164.5 C 107.243,163.038 103.243,161.038 99.5,158.5C 93.614,153.728 87.9473,148.728 82.5,143.5C 81.8902,142.609 81.5569,141.609 81.5,140.5C 79.8096,136.895 78.8096,133.062 78.5,129C 79.4296,120.975 81.9296,113.475 86,106.5C 101.317,84.9237 121.817,70.9237 147.5,64.5C 149.62,70.6509 150.954,76.9842 151.5,83.5C 148.575,83.4598 145.909,84.2932 143.5,86C 133.473,93.0336 125.973,102.2 121,113.5C 114.735,130.023 111.569,147.023 111.5,164.5 Z"/></g>
<g><path style="opacity:0.545" fill="#dfc19c" d="M 75.5,69.5 C 75.2766,73.1621 74.2766,76.4954 72.5,79.5C 72.32,75.7144 73.32,72.381 75.5,69.5 Z"/></g>
<g><path style="opacity:1" fill="#8f5e1b" d="M 271.5,64.5 C 278.867,79.5641 281.534,95.5641 279.5,112.5C 279.802,116.79 279.136,120.79 277.5,124.5C 278.547,113.522 278.713,102.522 278,91.5C 276.966,87.346 275.632,83.346 274,79.5C 273.707,74.312 272.873,69.312 271.5,64.5 Z"/></g>
<g><path style="opacity:1" fill="#fcb106" d="M 239.5,120.5 C 244.748,127.332 249.748,134.332 254.5,141.5C 254.5,142.167 254.5,142.833 254.5,143.5C 253.89,144.391 253.557,145.391 253.5,146.5C 247.917,138.402 242.083,130.402 236,122.5C 226.957,138.878 214.457,152.045 198.5,162C 193.195,164.318 188.028,166.818 183,169.5C 184.489,176.846 186.322,184.179 188.5,191.5C 187.167,191.5 185.833,191.5 184.5,191.5C 182.904,185.046 180.904,178.713 178.5,172.5C 176.955,171.548 175.288,171.215 173.5,171.5C 173.721,170.265 174.388,169.265 175.5,168.5C 174.271,167.719 172.938,167.219 171.5,167C 172.494,165.671 173.494,164.338 174.5,163C 173.713,160.901 173.38,158.734 173.5,156.5C 175.266,160.285 176.766,164.285 178,168.5C 179.183,169.731 180.349,169.731 181.5,168.5C 172.59,140.678 164.257,112.678 156.5,84.5C 169.585,81.1603 182.252,82.327 194.5,88C 210.067,96.5577 223.567,107.724 235,121.5C 235.915,120.672 236.581,119.672 237,118.5C 237.708,119.381 238.542,120.047 239.5,120.5 Z"/></g>
<g><path style="opacity:1" fill="#fdb103" d="M 173.5,156.5 C 173.38,158.734 173.713,160.901 174.5,163C 173.494,164.338 172.494,165.671 171.5,167C 172.938,167.219 174.271,167.719 175.5,168.5C 174.388,169.265 173.721,170.265 173.5,171.5C 173.167,171.5 172.833,171.5 172.5,171.5C 157.759,173.164 143.092,172.664 128.5,170C 125.717,167.736 122.55,166.236 119,165.5C 118.626,164.584 118.126,163.75 117.5,163C 118.167,160.667 118.833,158.333 119.5,156C 119.043,155.586 118.709,155.086 118.5,154.5C 119.292,148.551 119.792,142.551 120,136.5C 121.227,130.76 122.394,125.093 123.5,119.5C 124.5,119.5 125.5,119.5 126.5,119.5C 126.8,114.846 128.133,111.013 130.5,108C 129.748,107.329 129.414,106.496 129.5,105.5C 131.423,102.397 133.59,99.3968 136,96.5C 140.364,91.3052 145.864,87.9718 152.5,86.5C 159.9,109.702 166.9,133.035 173.5,156.5 Z"/></g>
<g><path style="opacity:0.952" fill="#271b17" d="M 268.5,53.5 C 276.096,66.2939 281.096,79.9606 283.5,94.5C 283.5,97.1667 283.5,99.8333 283.5,102.5C 282.849,101.909 282.182,101.243 281.5,100.5C 280.833,104.647 280.166,108.647 279.5,112.5C 281.534,95.5641 278.867,79.5641 271.5,64.5C 271.5,64.1667 271.5,63.8333 271.5,63.5C 270.439,60.3777 269.105,57.3777 267.5,54.5C 267.5,53.8333 267.833,53.5 268.5,53.5 Z"/></g>
<g><path style="opacity:1" fill="#d9a234" d="M 268.5,78.5 C 269.981,81.6073 271.148,84.9406 272,88.5C 272.667,98.5 272.667,108.5 272,118.5C 271.95,120.744 271.117,122.411 269.5,123.5C 272.198,108.456 271.865,93.4565 268.5,78.5 Z"/></g>
<g><path style="opacity:1" fill="#f3ab1d" d="M 268.5,138.5 C 269.08,134.19 269.414,129.857 269.5,125.5C 269.5,124.833 269.5,124.167 269.5,123.5C 271.117,122.411 271.95,120.744 272,118.5C 272.667,108.5 272.667,98.5 272,88.5C 271.148,84.9406 269.981,81.6073 268.5,78.5C 267.192,75.2698 266.192,71.9364 265.5,68.5C 265.167,67.8333 264.833,67.1667 264.5,66.5C 263.972,65.2794 263.305,64.1127 262.5,63C 258.082,61.1935 253.749,59.1935 249.5,57C 246.857,55.5644 244.19,55.3977 241.5,56.5C 244.574,68.4825 245.241,80.4825 243.5,92.5C 243.666,85.825 243.5,79.1583 243,72.5C 242.038,66.7455 240.538,61.0788 238.5,55.5C 232.646,54.8909 226.646,54.2242 220.5,53.5C 209.603,53.6893 198.603,53.6893 187.5,53.5C 194.766,51.9526 202.266,51.2859 210,51.5C 219.896,51.4307 229.729,52.0974 239.5,53.5C 239.5,52.5 239.5,51.5 239.5,50.5C 246.422,52.0298 253.088,54.3631 259.5,57.5C 257.234,50.0333 253.067,43.3666 247,37.5C 246.333,36.8333 246.333,36.1667 247,35.5C 251.712,40.5434 256.045,45.8767 260,51.5C 276.032,79.322 278.865,108.322 268.5,138.5 Z"/></g>
<g><path style="opacity:1" fill="#a46619" d="M 72.5,87.5 C 72.0922,99.5686 72.7589,111.569 74.5,123.5C 74.5976,125.619 75.4309,127.286 77,128.5C 77.5736,133.281 78.5736,137.948 80,142.5C 80.2784,141.584 80.7784,140.918 81.5,140.5C 81.5569,141.609 81.8902,142.609 82.5,143.5C 81.8614,144.097 81.528,144.93 81.5,146C 82.6825,148.604 84.0158,151.104 85.5,153.5C 84.675,154.386 83.675,154.719 82.5,154.5C 81.4043,151.968 80.0709,149.635 78.5,147.5C 78.33,146.178 78.6634,145.011 79.5,144C 78.9747,143.308 78.3081,142.808 77.5,142.5C 76.8787,137.941 75.212,133.941 72.5,130.5C 71.5489,129.081 71.2155,127.415 71.5,125.5C 70.9671,114.174 70.6337,102.841 70.5,91.5C 71.1667,90.1667 71.8333,88.8333 72.5,87.5 Z"/></g>
<g><path style="opacity:0.353" fill="#c5a06d" d="M 70.5,91.5 C 70.6337,102.841 70.9671,114.174 71.5,125.5C 70.0057,118.897 69.339,112.064 69.5,105C 69.5009,100.32 69.8342,95.8205 70.5,91.5 Z"/></g>
<g><path style="opacity:0.886" fill="#4f5751" d="M 282.5,125.5 C 282.324,128.727 281.657,131.727 280.5,134.5C 280.336,131.813 280.503,129.146 281,126.5C 281.383,125.944 281.883,125.611 282.5,125.5 Z"/></g>
<g><path style="opacity:1" fill="#915c14" d="M 264.5,66.5 C 264.833,67.1667 265.167,67.8333 265.5,68.5C 264.903,68.7352 264.57,69.2352 264.5,70C 270.45,95.9107 267.117,120.411 254.5,143.5C 254.5,142.833 254.5,142.167 254.5,141.5C 254.643,139.738 254.309,138.071 253.5,136.5C 253.846,135.304 254.346,135.304 255,136.5C 257.686,132.086 259.186,127.252 259.5,122C 259.355,121.228 259.022,120.561 258.5,120C 259.981,119.02 261.315,117.853 262.5,116.5C 266.105,100.943 266.438,85.2762 263.5,69.5C 263.52,68.2739 263.853,67.2739 264.5,66.5 Z"/></g>
<g><path style="opacity:1" fill="#ab6102" d="M 253.5,146.5 C 249.559,152.774 244.892,158.44 239.5,163.5C 238.167,163.5 236.833,163.5 235.5,163.5C 235.5,164.5 235.5,165.5 235.5,166.5C 234.448,166.351 233.448,166.517 232.5,167C 230.83,169.559 228.497,171.225 225.5,172C 223.963,173.11 223.297,174.61 223.5,176.5C 218.403,179.587 213.069,182.254 207.5,184.5C 202.012,185.47 196.679,186.97 191.5,189C 190.663,190.011 190.33,191.178 190.5,192.5C 190.167,192.5 189.833,192.5 189.5,192.5C 189.5,191.833 189.167,191.5 188.5,191.5C 186.322,184.179 184.489,176.846 183,169.5C 188.028,166.818 193.195,164.318 198.5,162C 214.457,152.045 226.957,138.878 236,122.5C 242.083,130.402 247.917,138.402 253.5,146.5 Z"/></g>
<g><path style="opacity:0.784" fill="#c7a371" d="M 72.5,130.5 C 75.212,133.941 76.8787,137.941 77.5,142.5C 78.3081,142.808 78.9747,143.308 79.5,144C 78.6634,145.011 78.33,146.178 78.5,147.5C 75.3317,142.333 73.3317,136.666 72.5,130.5 Z"/></g>
<g><path style="opacity:1" fill="#120402" d="M 265.5,68.5 C 266.192,71.9364 267.192,75.2698 268.5,78.5C 271.865,93.4565 272.198,108.456 269.5,123.5C 269.5,124.167 269.5,124.833 269.5,125.5C 259.608,162.729 236.274,187.396 199.5,199.5C 178.854,198.253 158.188,197.42 137.5,197C 123.589,191.892 111.589,184.058 101.5,173.5C 95.1294,167.38 90.2961,160.38 87,152.5C 89.698,156.025 92.5314,159.358 95.5,162.5C 100.383,168.928 106.383,173.928 113.5,177.5C 114.436,178.974 115.77,179.974 117.5,180.5C 117.842,181.338 118.508,181.672 119.5,181.5C 141.172,194.426 164.505,198.093 189.5,192.5C 189.833,192.5 190.167,192.5 190.5,192.5C 210.187,188.075 226.52,178.408 239.5,163.5C 244.892,158.44 249.559,152.774 253.5,146.5C 253.557,145.391 253.89,144.391 254.5,143.5C 267.117,120.411 270.45,95.9107 264.5,70C 264.57,69.2352 264.903,68.7352 265.5,68.5 Z"/></g>
<g><path style="opacity:0.086" fill="#ecd2b5" d="M 78.5,147.5 C 80.0709,149.635 81.4043,151.968 82.5,154.5C 82.5,154.833 82.5,155.167 82.5,155.5C 80.127,153.421 78.7936,150.754 78.5,147.5 Z"/></g>
<g><path style="opacity:1" fill="#1d1918" d="M 283.5,102.5 C 283.5,109.5 283.5,116.5 283.5,123.5C 282.662,123.842 282.328,124.508 282.5,125.5C 281.883,125.611 281.383,125.944 281,126.5C 280.503,129.146 280.336,131.813 280.5,134.5C 278.595,145.961 274.262,156.295 267.5,165.5C 266.094,165.973 265.427,166.973 265.5,168.5C 259.913,176.757 253.246,184.09 245.5,190.5C 243.973,190.427 242.973,191.094 242.5,192.5C 240.087,194.887 237.42,197.054 234.5,199C 229.697,200.994 225.031,203.16 220.5,205.5C 217.991,206.888 216.324,206.054 215.5,203C 221.852,199.619 227.852,195.785 233.5,191.5C 250.927,181.077 263.26,166.41 270.5,147.5C 274.518,140.45 276.851,132.783 277.5,124.5C 279.136,120.79 279.802,116.79 279.5,112.5C 280.166,108.647 280.833,104.647 281.5,100.5C 282.182,101.243 282.849,101.909 283.5,102.5 Z"/></g>
<g><path style="opacity:1" fill="#9b692c" d="M 82.5,143.5 C 83.7887,147.745 86.2887,151.078 90,153.5C 92.3662,156.243 94.1995,159.243 95.5,162.5C 92.5314,159.358 89.698,156.025 87,152.5C 90.2961,160.38 95.1294,167.38 101.5,173.5C 99.9826,173.489 98.8159,172.823 98,171.5C 98.2035,173.937 99.0368,176.271 100.5,178.5C 103.548,180.882 106.215,183.548 108.5,186.5C 107.833,186.5 107.5,186.833 107.5,187.5C 104.167,184.833 101.167,181.833 98.5,178.5C 98.2624,176.596 97.2624,175.262 95.5,174.5C 89.9341,169.043 85.6008,162.71 82.5,155.5C 82.5,155.167 82.5,154.833 82.5,154.5C 83.675,154.719 84.675,154.386 85.5,153.5C 84.0158,151.104 82.6825,148.604 81.5,146C 81.528,144.93 81.8614,144.097 82.5,143.5 Z"/></g>
<g><path style="opacity:1" fill="#a66109" d="M 82.5,143.5 C 87.9473,148.728 93.614,153.728 99.5,158.5C 103.243,161.038 107.243,163.038 111.5,164.5C 112.103,168.273 112.77,171.939 113.5,175.5C 113.5,176.167 113.5,176.833 113.5,177.5C 106.383,173.928 100.383,168.928 95.5,162.5C 94.1995,159.243 92.3662,156.243 90,153.5C 86.2887,151.078 83.7887,147.745 82.5,143.5 Z"/></g>
<g><path style="opacity:1" fill="#945d1b" d="M 270.5,147.5 C 263.26,166.41 250.927,181.077 233.5,191.5C 234.252,189.9 235.252,188.4 236.5,187C 239.447,186.888 240.78,185.388 240.5,182.5C 241.833,182.5 243.167,182.5 244.5,182.5C 244.343,181.127 244.51,179.793 245,178.5C 245.741,177.359 246.575,177.359 247.5,178.5C 248.711,177.726 248.711,176.893 247.5,176C 252.698,173.36 256.864,169.526 260,164.5C 260.494,162.866 260.66,161.199 260.5,159.5C 261.5,159.5 262.5,159.5 263.5,159.5C 263.519,157.94 263.852,156.44 264.5,155C 267.1,152.909 269.1,150.409 270.5,147.5 Z"/></g>
<g><path style="opacity:0.008" fill="#dbdad3" d="M 267.5,165.5 C 267.573,167.027 266.906,168.027 265.5,168.5C 265.427,166.973 266.094,165.973 267.5,165.5 Z"/></g>
<g><path style="opacity:1" fill="#e5a82c" d="M 269.5,125.5 C 269.414,129.857 269.08,134.19 268.5,138.5C 267.44,142.18 266.274,145.846 265,149.5C 254.445,169.389 239.278,184.555 219.5,195C 213.214,198.315 206.548,200.148 199.5,200.5C 199.5,200.167 199.5,199.833 199.5,199.5C 236.274,187.396 259.608,162.729 269.5,125.5 Z"/></g>
<g><path style="opacity:1" fill="#ab6101" d="M 172.5,171.5 C 172.833,171.5 173.167,171.5 173.5,171.5C 175.288,171.215 176.955,171.548 178.5,172.5C 180.904,178.713 182.904,185.046 184.5,191.5C 170.929,192.856 157.262,192.356 143.5,190C 135.978,185.987 127.978,183.154 119.5,181.5C 118.508,181.672 117.842,181.338 117.5,180.5C 116.366,176.164 116.366,171.831 117.5,167.5C 135.535,174.938 153.868,176.272 172.5,171.5 Z"/></g>
<g><path style="opacity:1" fill="#f5ab1a" d="M 129.5,105.5 C 129.414,106.496 129.748,107.329 130.5,108C 128.133,111.013 126.8,114.846 126.5,119.5C 125.5,119.5 124.5,119.5 123.5,119.5C 122.394,125.093 121.227,130.76 120,136.5C 119.792,142.551 119.292,148.551 118.5,154.5C 118.709,155.086 119.043,155.586 119.5,156C 118.833,158.333 118.167,160.667 117.5,163C 118.126,163.75 118.626,164.584 119,165.5C 122.55,166.236 125.717,167.736 128.5,170C 143.092,172.664 157.759,173.164 172.5,171.5C 153.868,176.272 135.535,174.938 117.5,167.5C 116.366,171.831 116.366,176.164 117.5,180.5C 115.77,179.974 114.436,178.974 113.5,177.5C 113.5,176.833 113.5,176.167 113.5,175.5C 113.5,172.5 113.5,169.5 113.5,166.5C 114.5,166.5 115.5,166.5 116.5,166.5C 116.334,159.492 116.5,152.492 117,145.5C 118.086,131.082 122.253,117.748 129.5,105.5 Z"/></g>
<g><path style="opacity:1" fill="#925d17" d="M 239.5,163.5 C 226.52,178.408 210.187,188.075 190.5,192.5C 190.33,191.178 190.663,190.011 191.5,189C 196.679,186.97 202.012,185.47 207.5,184.5C 213.069,182.254 218.403,179.587 223.5,176.5C 223.297,174.61 223.963,173.11 225.5,172C 228.497,171.225 230.83,169.559 232.5,167C 233.448,166.517 234.448,166.351 235.5,166.5C 235.5,165.5 235.5,164.5 235.5,163.5C 236.833,163.5 238.167,163.5 239.5,163.5 Z"/></g>
<g><path style="opacity:0.012" fill="#fbe6d0" d="M 95.5,174.5 C 97.2624,175.262 98.2624,176.596 98.5,178.5C 96.7376,177.738 95.7376,176.404 95.5,174.5 Z"/></g>
<g><path style="opacity:0.812" fill="#624530" d="M 107.5,187.5 C 107.5,186.833 107.833,186.5 108.5,186.5C 112.146,188.817 115.48,191.484 118.5,194.5C 117.833,194.5 117.167,194.5 116.5,194.5C 113.214,192.549 110.214,190.215 107.5,187.5 Z"/></g>
<g><path style="opacity:0.004" fill="#d8d6d7" d="M 245.5,190.5 C 245.027,191.906 244.027,192.573 242.5,192.5C 242.973,191.094 243.973,190.427 245.5,190.5 Z"/></g>
<g><path style="opacity:1" fill="#975f1d" d="M 119.5,181.5 C 127.978,183.154 135.978,185.987 143.5,190C 157.262,192.356 170.929,192.856 184.5,191.5C 185.833,191.5 187.167,191.5 188.5,191.5C 189.167,191.5 189.5,191.833 189.5,192.5C 164.505,198.093 141.172,194.426 119.5,181.5 Z"/></g>
<g><path style="opacity:1" fill="#9a631f" d="M 101.5,173.5 C 111.589,184.058 123.589,191.892 137.5,197C 158.188,197.42 178.854,198.253 199.5,199.5C 199.5,199.833 199.5,200.167 199.5,200.5C 177.518,199.295 155.518,198.461 133.5,198C 129.542,196.313 125.542,196.313 121.5,198C 102.836,198.5 84.1696,198.667 65.5,198.5C 76.6544,197.505 87.9877,197.172 99.5,197.5C 106.508,197.666 113.508,197.5 120.5,197C 119.619,196.292 118.953,195.458 118.5,194.5C 115.48,191.484 112.146,188.817 108.5,186.5C 106.215,183.548 103.548,180.882 100.5,178.5C 99.0368,176.271 98.2035,173.937 98,171.5C 98.8159,172.823 99.9826,173.489 101.5,173.5 Z"/></g>
<g><path style="opacity:0.098" fill="#ead5a3" d="M 116.5,194.5 C 117.167,194.5 117.833,194.5 118.5,194.5C 118.953,195.458 119.619,196.292 120.5,197C 113.508,197.5 106.508,197.666 99.5,197.5C 105.319,196.672 111.319,196.172 117.5,196C 116.944,195.617 116.611,195.117 116.5,194.5 Z"/></g>
<g><path style="opacity:1" fill="#915f1f" d="M 233.5,191.5 C 227.852,195.785 221.852,199.619 215.5,203C 216.324,206.054 217.991,206.888 220.5,205.5C 220.167,206.167 219.833,206.833 219.5,207.5C 219.4,212.191 217.567,216.191 214,219.5C 213.472,223.699 212.639,227.699 211.5,231.5C 211.5,229.5 211.5,227.5 211.5,225.5C 211.833,222.833 212.167,220.167 212.5,217.5C 211.5,217.5 210.5,217.5 209.5,217.5C 209.101,221.011 208.434,224.344 207.5,227.5C 207.335,224.482 207.502,221.482 208,218.5C 208.69,216.65 209.856,215.316 211.5,214.5C 214.487,212.892 215.154,210.558 213.5,207.5C 212.423,206.295 211.09,205.628 209.5,205.5C 209.5,205.167 209.5,204.833 209.5,204.5C 212.49,203.378 215.157,201.544 217.5,199C 220.911,197.797 224.244,196.297 227.5,194.5C 228.722,192.022 230.722,191.022 233.5,191.5 Z"/></g>
<g><path style="opacity:0.345" fill="#dabe91" d="M 61.5,198.5 C 56.8333,199.167 52.1667,199.833 47.5,200.5C 41.3997,200.377 35.3997,201.043 29.5,202.5C 31.5625,201.224 33.8958,200.39 36.5,200C 44.802,198.947 53.1353,198.447 61.5,198.5 Z"/></g>
<g><path style="opacity:1" fill="#f9b012" d="M 209.5,204.5 C 209.5,204.833 209.5,205.167 209.5,205.5C 209.489,207.017 208.823,208.184 207.5,209C 204.854,209.497 202.187,209.664 199.5,209.5C 194.358,208.353 189.025,207.52 183.5,207C 169.994,206.173 156.66,206.34 143.5,207.5C 141.167,207.5 138.833,207.5 136.5,207.5C 114.153,207.284 91.82,207.617 69.5,208.5C 58.4618,208.777 47.4618,209.443 36.5,210.5C 34.8333,210.5 33.1667,210.5 31.5,210.5C 31.3433,209.127 31.51,207.793 32,206.5C 44.9812,203.982 58.1479,202.482 71.5,202C 107.833,201.333 144.167,201.333 180.5,202C 190.169,202.889 199.835,203.722 209.5,204.5 Z"/></g>
<g><path style="opacity:1" fill="#c7942a" d="M 143.5,207.5 C 156.66,206.34 169.994,206.173 183.5,207C 189.025,207.52 194.358,208.353 199.5,209.5C 180.85,208.421 162.183,207.755 143.5,207.5 Z"/></g>
<g><path style="opacity:1" fill="#190501" d="M 209.5,205.5 C 211.09,205.628 212.423,206.295 213.5,207.5C 215.154,210.558 214.487,212.892 211.5,214.5C 211.663,212.143 211.497,209.81 211,207.5C 208.285,211.404 204.785,212.404 200.5,210.5C 197.433,210.607 194.433,211.107 191.5,212C 192.942,212.377 193.942,213.21 194.5,214.5C 190.215,213.705 185.881,213.372 181.5,213.5C 172.858,212.701 164.191,212.368 155.5,212.5C 148.167,211.833 140.833,211.167 133.5,210.5C 134.833,209.833 135.833,208.833 136.5,207.5C 138.833,207.5 141.167,207.5 143.5,207.5C 162.183,207.755 180.85,208.421 199.5,209.5C 202.187,209.664 204.854,209.497 207.5,209C 208.823,208.184 209.489,207.017 209.5,205.5 Z"/></g>
<g><path style="opacity:0.169" fill="#8f8784" d="M 219.5,207.5 C 220.906,207.973 221.573,208.973 221.5,210.5C 220.094,210.027 219.427,209.027 219.5,207.5 Z"/></g>
<g><path style="opacity:0.231" fill="#ddbe95" d="M 29.5,202.5 C 26.2282,206.654 25.5615,211.321 27.5,216.5C 25.5615,211.321 26.2282,206.654 29.5,202.5 Z"/></g>
<g><path style="opacity:1" fill="#210f03" d="M 69.5,208.5 C 69.5394,209.583 69.8728,210.583 70.5,211.5C 69.624,212.251 68.624,212.751 67.5,213C 59.6557,213.171 51.989,213.671 44.5,214.5C 41.4299,214.368 38.4299,214.701 35.5,215.5C 35.1667,215.5 34.8333,215.5 34.5,215.5C 34.67,214.178 34.3366,213.011 33.5,212C 34.7375,211.768 35.7375,211.268 36.5,210.5C 47.4618,209.443 58.4618,208.777 69.5,208.5 Z"/></g>
<g><path style="opacity:1" fill="#3a1a00" d="M 133.5,210.5 C 140.833,211.167 148.167,211.833 155.5,212.5C 153.833,212.5 152.167,212.5 150.5,212.5C 145.5,212.5 140.5,212.5 135.5,212.5C 133.473,212.662 131.473,212.495 129.5,212C 130.745,211.209 132.078,210.709 133.5,210.5 Z"/></g>
<g><path style="opacity:1" fill="#9a6118" d="M 47.5,200.5 C 41.5358,201.67 35.5358,203.17 29.5,205C 27.3813,207.218 27.048,209.718 28.5,212.5C 29.3957,213.506 30.0623,213.506 30.5,212.5C 29.0116,210.114 29.3449,209.448 31.5,210.5C 33.1667,210.5 34.8333,210.5 36.5,210.5C 35.7375,211.268 34.7375,211.768 33.5,212C 34.3366,213.011 34.67,214.178 34.5,215.5C 33.5041,215.586 32.6708,215.252 32,214.5C 32.3256,219.44 32.4923,224.44 32.5,229.5C 31.6288,225.979 30.7955,222.312 30,218.5C 29.5831,217.244 28.7498,216.577 27.5,216.5C 25.5615,211.321 26.2282,206.654 29.5,202.5C 35.3997,201.043 41.3997,200.377 47.5,200.5 Z"/></g>
<g><path style="opacity:1" fill="#986021" d="M 150.5,213.5 C 150.5,213.167 150.5,212.833 150.5,212.5C 152.167,212.5 153.833,212.5 155.5,212.5C 164.191,212.368 172.858,212.701 181.5,213.5C 181.5,213.833 181.5,214.167 181.5,214.5C 171.085,214.808 160.751,214.475 150.5,213.5 Z"/></g>
<g><path style="opacity:1" fill="#050202" d="M 211.5,214.5 C 209.856,215.316 208.69,216.65 208,218.5C 207.502,221.482 207.335,224.482 207.5,227.5C 207.5,227.833 207.5,228.167 207.5,228.5C 206.833,228.5 206.5,228.833 206.5,229.5C 204.691,235.229 203.524,241.229 203,247.5C 202.33,250.233 201.164,251.9 199.5,252.5C 200.636,254.318 201.303,256.318 201.5,258.5C 200.326,267.227 198.826,275.894 197,284.5C 196.174,264.26 196.341,244.094 197.5,224C 196.877,221.393 196.21,218.893 195.5,216.5C 195.672,215.508 195.338,214.842 194.5,214.5C 193.942,213.21 192.942,212.377 191.5,212C 194.433,211.107 197.433,210.607 200.5,210.5C 204.785,212.404 208.285,211.404 211,207.5C 211.497,209.81 211.663,212.143 211.5,214.5 Z"/></g>
<g><path style="opacity:1" fill="#a86606" d="M 189.5,217.5 C 190.791,217.263 191.791,217.596 192.5,218.5C 191.5,218.5 190.5,218.5 189.5,218.5C 189.5,219.5 189.5,220.5 189.5,221.5C 190.5,221.5 191.5,221.5 192.5,221.5C 189.995,222.497 187.328,222.497 184.5,221.5C 184.5,220.167 184.5,218.833 184.5,217.5C 186.167,217.5 187.833,217.5 189.5,217.5 Z"/></g>
<g><path style="opacity:1" fill="#470a00" d="M 192.5,218.5 C 192.5,219.5 192.5,220.5 192.5,221.5C 191.5,221.5 190.5,221.5 189.5,221.5C 189.5,220.5 189.5,219.5 189.5,218.5C 190.5,218.5 191.5,218.5 192.5,218.5 Z"/></g>
<g><path style="opacity:1" fill="#fbb010" d="M 135.5,212.5 C 140.5,212.5 145.5,212.5 150.5,212.5C 150.5,212.833 150.5,213.167 150.5,213.5C 150.5,239.167 150.5,264.833 150.5,290.5C 149.67,298.99 149.17,307.657 149,316.5C 145.45,281.563 140.95,246.896 135.5,212.5 Z"/></g>
<g><path style="opacity:1" fill="#ac6101" d="M 150.5,213.5 C 160.751,214.475 171.085,214.808 181.5,214.5C 172.717,264.475 163.883,314.475 155,364.5C 153.207,353.577 151.874,342.577 151,331.5C 150.51,332.793 150.343,334.127 150.5,335.5C 149.883,335.389 149.383,335.056 149,334.5C 148.333,329.5 148.333,324.5 149,319.5C 149.333,320.5 149.667,321.5 150,322.5C 150.5,311.839 150.667,301.172 150.5,290.5C 150.5,264.833 150.5,239.167 150.5,213.5 Z"/></g>
<g><path style="opacity:1" fill="#eea822" d="M 45.5,214.5 C 48.8333,214.5 52.1667,214.5 55.5,214.5C 55.6664,222.507 55.4997,230.507 55,238.5C 53.5836,231.272 52.7503,223.938 52.5,216.5C 49.8333,216.5 47.1667,216.5 44.5,216.5C 44.1667,216.5 43.8333,216.5 43.5,216.5C 44.1667,215.833 44.8333,215.167 45.5,214.5 Z"/></g>
<g><path style="opacity:0.267" fill="#aba6a4" d="M 218.5,222.5 C 218.037,225.33 217.371,227.997 216.5,230.5C 216.337,228.143 216.503,225.81 217,223.5C 217.383,222.944 217.883,222.611 218.5,222.5 Z"/></g>
<g><path style="opacity:1" fill="#ac6403" d="M 191.5,226.5 C 190.209,226.263 189.209,226.596 188.5,227.5C 187.235,228.514 186.569,230.014 186.5,232C 185.917,237.492 185.417,242.992 185,248.5C 184.667,248.833 184.333,249.167 184,249.5C 183.667,248.5 183.333,247.5 183,246.5C 182.329,247.252 181.496,247.586 180.5,247.5C 181.08,240.355 182.413,233.355 184.5,226.5C 186.973,225.203 189.307,225.203 191.5,226.5 Z"/></g>
<g><path style="opacity:0.776" fill="#d3b485" d="M 27.5,216.5 C 28.7498,216.577 29.5831,217.244 30,218.5C 30.7955,222.312 31.6288,225.979 32.5,229.5C 33.038,231.117 33.3713,232.784 33.5,234.5C 33.5,238.833 33.5,243.167 33.5,247.5C 32.0208,239.69 30.8541,231.69 30,223.5C 29.6207,220.97 28.7874,218.637 27.5,216.5 Z"/></g>
<g><path style="opacity:1" fill="#dead50" d="M 181.5,214.5 C 181.5,214.167 181.5,213.833 181.5,213.5C 185.881,213.372 190.215,213.705 194.5,214.5C 195.338,214.842 195.672,215.508 195.5,216.5C 194.673,229.482 194.339,242.482 194.5,255.5C 193.833,260.167 193.167,264.833 192.5,269.5C 192.764,255.137 192.431,240.804 191.5,226.5C 192.117,226.611 192.617,226.944 193,227.5C 193.346,225.782 193.846,224.115 194.5,222.5C 194.043,221.702 193.376,221.369 192.5,221.5C 192.5,220.5 192.5,219.5 192.5,218.5C 191.791,217.596 190.791,217.263 189.5,217.5C 189.804,216.85 190.137,216.183 190.5,215.5C 187.572,214.516 184.572,214.183 181.5,214.5 Z"/></g>
<g><path style="opacity:0.912" fill="#585958" d="M 215.5,238.5 C 216.105,243.611 215.438,248.611 213.5,253.5C 213.681,250.603 213.348,247.77 212.5,245C 213.762,242.83 214.762,240.663 215.5,238.5 Z"/></g>
<g><path style="opacity:1" fill="#9a6116" d="M 188.5,227.5 C 186.987,247.357 184.987,267.024 182.5,286.5C 182.792,276.165 183.125,265.832 183.5,255.5C 182.5,255.5 181.5,255.5 180.5,255.5C 180.5,252.833 180.5,250.167 180.5,247.5C 181.496,247.586 182.329,247.252 183,246.5C 183.333,247.5 183.667,248.5 184,249.5C 184.333,249.167 184.667,248.833 185,248.5C 185.417,242.992 185.917,237.492 186.5,232C 186.569,230.014 187.235,228.514 188.5,227.5 Z"/></g>
<g><path style="opacity:1" fill="#daa136" d="M 44.5,214.5 C 44.8333,214.5 45.1667,214.5 45.5,214.5C 44.8333,215.167 44.1667,215.833 43.5,216.5C 41.901,216.232 40.5676,216.566 39.5,217.5C 38.8476,218.449 38.5143,219.615 38.5,221C 41.871,246.801 44.871,272.634 47.5,298.5C 47.335,301.85 47.5017,305.183 48,308.5C 48.2321,309.737 48.7321,310.737 49.5,311.5C 49.5,312.167 49.5,312.833 49.5,313.5C 49.3498,318.301 50.0165,322.967 51.5,327.5C 50.8826,327.389 50.3826,327.056 50,326.5C 49.5065,328.134 49.3398,329.801 49.5,331.5C 44.7392,292.978 40.0726,254.311 35.5,215.5C 38.4299,214.701 41.4299,214.368 44.5,214.5 Z"/></g>
<g><path style="opacity:0.622" fill="#ba915a" d="M 33.5,247.5 C 36.1351,256.171 37.4684,265.171 37.5,274.5C 35.6482,265.709 34.3149,256.709 33.5,247.5 Z"/></g>
<g><path style="opacity:1" fill="#150300" d="M 39.5,217.5 C 41.1439,217.286 42.6439,217.62 44,218.5C 46.3292,244.037 49.1626,269.371 52.5,294.5C 52.5,303.167 52.5,311.833 52.5,320.5C 50.9174,318.492 49.9174,316.159 49.5,313.5C 49.5,312.833 49.5,312.167 49.5,311.5C 49.2296,306.972 48.5629,302.639 47.5,298.5C 44.871,272.634 41.871,246.801 38.5,221C 38.5143,219.615 38.8476,218.449 39.5,217.5 Z"/></g>
<g><path style="opacity:1" fill="#ca9631" d="M 207.5,228.5 C 206.775,241.872 205.608,255.206 204,268.5C 202.965,273.656 201.798,278.656 200.5,283.5C 202.406,265.491 204.406,247.491 206.5,229.5C 206.5,228.833 206.833,228.5 207.5,228.5 Z"/></g>
<g><path style="opacity:1" fill="#85581b" d="M 39.5,217.5 C 40.5676,216.566 41.901,216.232 43.5,216.5C 43.8333,216.5 44.1667,216.5 44.5,216.5C 47.3226,238.108 49.9892,259.775 52.5,281.5C 52.5,285.833 52.5,290.167 52.5,294.5C 49.1626,269.371 46.3292,244.037 44,218.5C 42.6439,217.62 41.1439,217.286 39.5,217.5 Z"/></g>
<g><path style="opacity:1" fill="#d8ad65" d="M 194.5,255.5 C 194.5,278.167 194.5,300.833 194.5,323.5C 194.167,323.5 193.833,323.5 193.5,323.5C 193.768,321.901 193.434,320.568 192.5,319.5C 192.5,302.833 192.5,286.167 192.5,269.5C 193.167,264.833 193.833,260.167 194.5,255.5 Z"/></g>
<g><path style="opacity:1" fill="#110702" d="M 191.5,226.5 C 192.431,240.804 192.764,255.137 192.5,269.5C 192.5,286.167 192.5,302.833 192.5,319.5C 192.656,342.151 190.656,364.484 186.5,386.5C 182.142,391.879 178.808,397.879 176.5,404.5C 174.935,402.491 173.935,400.157 173.5,397.5C 176.234,371.551 178.234,345.551 179.5,319.5C 181.449,309.066 182.449,298.399 182.5,287.5C 182.5,287.167 182.5,286.833 182.5,286.5C 184.987,267.024 186.987,247.357 188.5,227.5C 189.209,226.596 190.209,226.263 191.5,226.5 Z"/></g>
<g><path style="opacity:1" fill="#ad6404" d="M 34.5,215.5 C 34.8333,215.5 35.1667,215.5 35.5,215.5C 40.0726,254.311 44.7392,292.978 49.5,331.5C 51.2897,345.424 51.9563,359.424 51.5,373.5C 50.8333,372.833 50.1667,372.167 49.5,371.5C 50.1128,365.729 49.4461,360.396 47.5,355.5C 47.2902,343.407 46.2902,331.407 44.5,319.5C 42.5019,296.173 40.0019,272.84 37,249.5C 35.2923,244.501 34.1256,239.501 33.5,234.5C 33.3713,232.784 33.038,231.117 32.5,229.5C 32.4923,224.44 32.3256,219.44 32,214.5C 32.6708,215.252 33.5041,215.586 34.5,215.5 Z"/></g>
<g><path style="opacity:1" fill="#a77024" d="M 33.5,234.5 C 34.1256,239.501 35.2923,244.501 37,249.5C 40.0019,272.84 42.5019,296.173 44.5,319.5C 43.8333,319.5 43.1667,319.5 42.5,319.5C 40.4228,304.549 38.7562,289.549 37.5,274.5C 37.4684,265.171 36.1351,256.171 33.5,247.5C 33.5,243.167 33.5,238.833 33.5,234.5 Z"/></g>
<g><path style="opacity:1" fill="#210d01" d="M 195.5,216.5 C 196.21,218.893 196.877,221.393 197.5,224C 196.341,244.094 196.174,264.26 197,284.5C 198.826,275.894 200.326,267.227 201.5,258.5C 201.303,256.318 200.636,254.318 199.5,252.5C 201.164,251.9 202.33,250.233 203,247.5C 203.524,241.229 204.691,235.229 206.5,229.5C 204.406,247.491 202.406,265.491 200.5,283.5C 198.346,296.731 196.679,310.065 195.5,323.5C 195.167,323.5 194.833,323.5 194.5,323.5C 194.5,300.833 194.5,278.167 194.5,255.5C 194.339,242.482 194.673,229.482 195.5,216.5 Z"/></g>
<g><path style="opacity:1" fill="#f2ab23" d="M 54.5,323.5 C 53.5042,309.677 53.1709,295.677 53.5,281.5C 53.3339,275.824 53.5006,270.157 54,264.5C 55.2936,271.101 56.1269,277.767 56.5,284.5C 55.9188,297.535 55.2521,310.535 54.5,323.5 Z"/></g>
<g><path style="opacity:1" fill="#b5833b" d="M 47.5,298.5 C 48.5629,302.639 49.2296,306.972 49.5,311.5C 48.7321,310.737 48.2321,309.737 48,308.5C 47.5017,305.183 47.335,301.85 47.5,298.5 Z"/></g>
<g><path style="opacity:1" fill="#885821" d="M 182.5,287.5 C 182.449,298.399 181.449,309.066 179.5,319.5C 179.194,308.566 180.194,297.9 182.5,287.5 Z"/></g>
<g><path style="opacity:1" fill="#ac6103" d="M 180.5,247.5 C 180.5,250.167 180.5,252.833 180.5,255.5C 181.5,255.5 182.5,255.5 183.5,255.5C 183.125,265.832 182.792,276.165 182.5,286.5C 182.5,286.833 182.5,287.167 182.5,287.5C 180.194,297.9 179.194,308.566 179.5,319.5C 178.776,322.083 177.943,324.749 177,327.5C 175.191,350.452 173.691,373.452 172.5,396.5C 168.197,391.353 164.03,386.02 160,380.5C 158.928,377.456 158.428,374.29 158.5,371C 165.043,329.564 172.377,288.397 180.5,247.5 Z"/></g>
<g><path style="opacity:0.945" fill="#1e1817" d="M 219.5,207.5 C 219.427,209.027 220.094,210.027 221.5,210.5C 223.271,215.219 222.271,219.219 218.5,222.5C 217.883,222.611 217.383,222.944 217,223.5C 216.503,225.81 216.337,228.143 216.5,230.5C 216.806,233.385 216.473,236.052 215.5,238.5C 214.762,240.663 213.762,242.83 212.5,245C 213.348,247.77 213.681,250.603 213.5,253.5C 205.828,318.875 197.828,384.208 189.5,449.5C 187.789,453.881 187.123,458.547 187.5,463.5C 186.105,470.308 185.105,477.308 184.5,484.5C 194.833,484.5 205.167,484.5 215.5,484.5C 215.5,490.167 215.5,495.833 215.5,501.5C 226.5,501.5 237.5,501.5 248.5,501.5C 248.5,504.5 248.5,507.5 248.5,510.5C 247.883,510.611 247.383,510.944 247,511.5C 246.828,518.013 246.328,524.347 245.5,530.5C 245.5,521.833 245.5,513.167 245.5,504.5C 234.5,504.5 223.5,504.5 212.5,504.5C 212.5,498.5 212.5,492.5 212.5,486.5C 201.833,486.5 191.167,486.5 180.5,486.5C 180.76,480.828 181.093,475.161 181.5,469.5C 182.301,467.958 182.634,466.292 182.5,464.5C 192.723,387.047 202.39,309.38 211.5,231.5C 212.639,227.699 213.472,223.699 214,219.5C 217.567,216.191 219.4,212.191 219.5,207.5 Z"/></g>
<g><path style="opacity:1" fill="#753f0f" d="M 49.5,313.5 C 49.9174,316.159 50.9174,318.492 52.5,320.5C 52.5,323.833 52.5,327.167 52.5,330.5C 51.596,329.791 51.2627,328.791 51.5,327.5C 50.0165,322.967 49.3498,318.301 49.5,313.5 Z"/></g>
<g><path style="opacity:1" fill="#eaa927" d="M 211.5,225.5 C 204.223,282.553 196.556,339.553 188.5,396.5C 187.833,393.167 187.167,389.833 186.5,386.5C 190.656,364.484 192.656,342.151 192.5,319.5C 193.434,320.568 193.768,321.901 193.5,323.5C 193.53,334.068 194.196,334.068 195.5,323.5C 196.679,310.065 198.346,296.731 200.5,283.5C 201.798,278.656 202.965,273.656 204,268.5C 205.608,255.206 206.775,241.872 207.5,228.5C 207.5,228.167 207.5,227.833 207.5,227.5C 208.434,224.344 209.101,221.011 209.5,217.5C 210.5,217.5 211.5,217.5 212.5,217.5C 212.167,220.167 211.833,222.833 211.5,225.5 Z"/></g>
<g><path style="opacity:1" fill="#864c04" d="M 193.5,323.5 C 193.833,323.5 194.167,323.5 194.5,323.5C 194.833,323.5 195.167,323.5 195.5,323.5C 194.196,334.068 193.53,334.068 193.5,323.5 Z"/></g>
<g><path style="opacity:1" fill="#dda545" d="M 52.5,281.5 C 52.8333,281.5 53.1667,281.5 53.5,281.5C 53.1709,295.677 53.5042,309.677 54.5,323.5C 54.5,324.167 54.5,324.833 54.5,325.5C 54.5,327.167 54.5,328.833 54.5,330.5C 54.5,334.167 54.5,337.833 54.5,341.5C 54.5488,348.849 54.8822,356.183 55.5,363.5C 54.5309,361.337 53.6976,359.004 53,356.5C 52.9228,347.79 52.7562,339.123 52.5,330.5C 52.5,327.167 52.5,323.833 52.5,320.5C 52.5,311.833 52.5,303.167 52.5,294.5C 52.5,290.167 52.5,285.833 52.5,281.5 Z"/></g>
<g><path style="opacity:1" fill="#5f3000" d="M 56.5,332.5 C 55.8333,335.5 55.1667,338.5 54.5,341.5C 54.5,337.833 54.5,334.167 54.5,330.5C 56.2027,329.34 56.8693,330.007 56.5,332.5 Z"/></g>
<g><path style="opacity:0.759" fill="#b99057" d="M 42.5,319.5 C 43.1667,319.5 43.8333,319.5 44.5,319.5C 46.2902,331.407 47.2902,343.407 47.5,355.5C 45.5527,343.674 43.886,331.674 42.5,319.5 Z"/></g>
<g><path style="opacity:1" fill="#f5a918" d="M 51.5,327.5 C 51.2627,328.791 51.596,329.791 52.5,330.5C 52.7562,339.123 52.9228,347.79 53,356.5C 53.6976,359.004 54.5309,361.337 55.5,363.5C 54.5203,371.993 55.8536,379.993 59.5,387.5C 58.5488,392.77 58.2154,398.103 58.5,403.5C 57.3529,398.358 56.5196,393.025 56,387.5C 55.3392,384.198 54.1725,381.198 52.5,378.5C 52.7845,376.585 52.4511,374.919 51.5,373.5C 51.9563,359.424 51.2897,345.424 49.5,331.5C 49.3398,329.801 49.5065,328.134 50,326.5C 50.3826,327.056 50.8826,327.389 51.5,327.5 Z"/></g>
<g><path style="opacity:1" fill="#955e1b" d="M 179.5,319.5 C 178.234,345.551 176.234,371.551 173.5,397.5C 173.167,397.5 172.833,397.5 172.5,397.5C 172.5,397.167 172.5,396.833 172.5,396.5C 173.691,373.452 175.191,350.452 177,327.5C 177.943,324.749 178.776,322.083 179.5,319.5 Z"/></g>
<g><path style="opacity:1" fill="#9a5f13" d="M 54.5,325.5 C 55.4674,326.806 56.8007,327.473 58.5,327.5C 58.6387,334.915 59.472,342.248 61,349.5C 61.3843,359.673 61.8843,369.839 62.5,380C 62.4971,382.69 62.1638,385.19 61.5,387.5C 60.8333,387.5 60.5,387.167 60.5,386.5C 61.1611,384.866 61.4944,383.033 61.5,381C 59.1428,364.904 57.4761,348.737 56.5,332.5C 56.8693,330.007 56.2027,329.34 54.5,330.5C 54.5,328.833 54.5,327.167 54.5,325.5 Z"/></g>
<g><path style="opacity:1" fill="#986313" d="M 211.5,225.5 C 211.5,227.5 211.5,229.5 211.5,231.5C 202.39,309.38 192.723,387.047 182.5,464.5C 183.72,451.52 184.72,438.52 185.5,425.5C 186.209,416.783 187.209,408.116 188.5,399.5C 188.5,398.5 188.5,397.5 188.5,396.5C 196.556,339.553 204.223,282.553 211.5,225.5 Z"/></g>
<g><path style="opacity:0.749" fill="#c29b63" d="M 47.5,355.5 C 49.4461,360.396 50.1128,365.729 49.5,371.5C 48.1937,366.384 47.527,361.051 47.5,355.5 Z"/></g>
<g><path style="opacity:1" fill="#1d0700" d="M 56.5,332.5 C 57.4761,348.737 59.1428,364.904 61.5,381C 61.4944,383.033 61.1611,384.866 60.5,386.5C 60.2172,385.711 59.7172,385.044 59,384.5C 57.7699,377.366 56.6033,370.366 55.5,363.5C 54.8822,356.183 54.5488,348.849 54.5,341.5C 55.1667,338.5 55.8333,335.5 56.5,332.5 Z"/></g>
<g><path style="opacity:1" fill="#f6ac15" d="M 181.5,214.5 C 184.572,214.183 187.572,214.516 190.5,215.5C 190.137,216.183 189.804,216.85 189.5,217.5C 187.833,217.5 186.167,217.5 184.5,217.5C 184.5,218.833 184.5,220.167 184.5,221.5C 187.328,222.497 189.995,222.497 192.5,221.5C 193.376,221.369 194.043,221.702 194.5,222.5C 193.846,224.115 193.346,225.782 193,227.5C 192.617,226.944 192.117,226.611 191.5,226.5C 189.307,225.203 186.973,225.203 184.5,226.5C 182.413,233.355 181.08,240.355 180.5,247.5C 172.377,288.397 165.043,329.564 158.5,371C 158.428,374.29 158.928,377.456 160,380.5C 164.03,386.02 168.197,391.353 172.5,396.5C 172.5,396.833 172.5,397.167 172.5,397.5C 172.795,399.735 172.461,401.735 171.5,403.5C 166.181,394.883 160.348,386.55 154,378.5C 152.907,380.349 151.574,382.016 150,383.5C 149.501,378.511 149.334,373.511 149.5,368.5C 150.495,357.679 150.828,346.679 150.5,335.5C 150.343,334.127 150.51,332.793 151,331.5C 151.874,342.577 153.207,353.577 155,364.5C 163.883,314.475 172.717,264.475 181.5,214.5 Z"/></g>
<g><path style="opacity:0.784" fill="#bb924d" d="M 49.5,371.5 C 50.1667,372.167 50.8333,372.833 51.5,373.5C 52.4511,374.919 52.7845,376.585 52.5,378.5C 52.5,383.5 52.5,388.5 52.5,393.5C 50.8596,386.389 49.8596,379.056 49.5,371.5 Z"/></g>
<g><path style="opacity:1" fill="#af6401" d="M 136.5,207.5 C 135.833,208.833 134.833,209.833 133.5,210.5C 132.078,210.709 130.745,211.209 129.5,212C 131.473,212.495 133.473,212.662 135.5,212.5C 140.95,246.896 145.45,281.563 149,316.5C 149.17,307.657 149.67,298.99 150.5,290.5C 150.667,301.172 150.5,311.839 150,322.5C 149.667,321.5 149.333,320.5 149,319.5C 148.333,324.5 148.333,329.5 149,334.5C 149.383,335.056 149.883,335.389 150.5,335.5C 150.828,346.679 150.495,357.679 149.5,368.5C 149.334,373.511 149.501,378.511 150,383.5C 151.574,382.016 152.907,380.349 154,378.5C 160.348,386.55 166.181,394.883 171.5,403.5C 171.5,405.167 171.5,406.833 171.5,408.5C 171.5,411.833 171.5,415.167 171.5,418.5C 165.582,426.932 159.416,435.265 153,443.5C 152.147,445.125 151.147,445.458 150,444.5C 148.255,451.564 149.755,457.731 154.5,463C 155.448,463.483 156.448,463.649 157.5,463.5C 157.02,460.995 156.02,458.662 154.5,456.5C 155.799,453.301 155.799,450.135 154.5,447C 158.656,441.015 163.323,435.515 168.5,430.5C 167.777,442.337 167.777,454.004 168.5,465.5C 171.5,465.5 174.5,465.5 177.5,465.5C 177.5,465.833 177.5,466.167 177.5,466.5C 167.833,466.5 158.167,466.5 148.5,466.5C 148.66,464.801 148.494,463.134 148,461.5C 146.556,463.155 144.722,463.822 142.5,463.5C 142.933,460.715 144.266,458.381 146.5,456.5C 145.167,453.167 145.167,449.833 146.5,446.5C 141.566,439.396 136.066,432.73 130,426.5C 128.333,423.5 126.667,420.5 125,417.5C 124.194,420.446 122.861,423.112 121,425.5C 114.64,431.227 108.973,437.56 104,444.5C 103.333,449.167 103.333,453.833 104,458.5C 105.438,459.9 106.271,461.567 106.5,463.5C 103.012,462.857 100.512,460.857 99,457.5C 97.7085,459.249 96.5418,461.082 95.5,463C 94.552,463.483 93.552,463.649 92.5,463.5C 92.0842,460.64 93.0842,458.474 95.5,457C 94.7608,452.873 94.2608,448.706 94,444.5C 89.0425,437.874 83.7092,431.54 78,425.5C 78.8756,439.548 80.3756,453.548 82.5,467.5C 78.5,467.5 74.5,467.5 70.5,467.5C 70.5,467.167 70.5,466.833 70.5,466.5C 71.1524,465.551 71.4857,464.385 71.5,463C 70.8049,456.184 70.3049,449.35 70,442.5C 69.8442,439.809 69.0109,437.476 67.5,435.5C 66.8333,435.167 66.1667,434.833 65.5,434.5C 69.0556,430.223 71.3889,425.39 72.5,420C 71.9064,412.803 71.0731,405.636 70,398.5C 66.9514,394.957 64.1181,391.291 61.5,387.5C 62.1638,385.19 62.4971,382.69 62.5,380C 61.8843,369.839 61.3843,359.673 61,349.5C 59.472,342.248 58.6387,334.915 58.5,327.5C 56.8007,327.473 55.4674,326.806 54.5,325.5C 54.5,324.833 54.5,324.167 54.5,323.5C 55.2521,310.535 55.9188,297.535 56.5,284.5C 56.1269,277.767 55.2936,271.101 54,264.5C 53.5006,270.157 53.3339,275.824 53.5,281.5C 53.1667,281.5 52.8333,281.5 52.5,281.5C 49.9892,259.775 47.3226,238.108 44.5,216.5C 47.1667,216.5 49.8333,216.5 52.5,216.5C 52.7503,223.938 53.5836,231.272 55,238.5C 55.4997,230.507 55.6664,222.507 55.5,214.5C 52.1667,214.5 48.8333,214.5 45.5,214.5C 45.1667,214.5 44.8333,214.5 44.5,214.5C 51.989,213.671 59.6557,213.171 67.5,213C 68.624,212.751 69.624,212.251 70.5,211.5C 69.8728,210.583 69.5394,209.583 69.5,208.5C 91.82,207.617 114.153,207.284 136.5,207.5 Z"/></g>
<g><path style="opacity:1" fill="#fdb106" d="M 96.5,378.5 C 103.464,385.965 110.631,393.298 118,400.5C 119.112,402.39 119.946,404.39 120.5,406.5C 119.804,411.203 119.471,415.87 119.5,420.5C 115.351,426.472 110.518,431.806 105,436.5C 102.752,439.328 100.752,442.328 99,445.5C 93.7084,438.54 88.0417,431.873 82,425.5C 80.4832,422.657 78.9832,419.823 77.5,417C 78.4557,412.507 78.6223,408.007 78,403.5C 84.384,395.289 90.5507,386.956 96.5,378.5 Z"/></g>
<g><path style="opacity:1" fill="#fcb108" d="M 59.5,224.5 C 62.5,224.5 65.5,224.5 68.5,224.5C 76.4151,269.488 84.2484,314.488 92,359.5C 92.6667,365.833 92.6667,372.167 92,378.5C 89.1401,384.365 85.1401,389.365 80,393.5C 78.3333,396.167 76.6667,398.833 75,401.5C 69.2435,356.868 63.5768,312.202 58,267.5C 57.1941,253.066 57.6941,238.733 59.5,224.5 Z"/></g>
<g><path style="opacity:1" fill="#fdb104" d="M 149.5,368.5 C 149.045,373.236 147.878,377.903 146,382.5C 141.307,386.861 136.641,391.195 132,395.5C 129.212,398.45 127.045,401.783 125.5,405.5C 123.914,403.33 122.58,400.996 121.5,398.5C 114.398,391.942 107.731,384.942 101.5,377.5C 101.657,365.537 102.491,353.537 104,341.5C 108.93,302.392 114.43,263.392 120.5,224.5C 124.833,224.5 129.167,224.5 133.5,224.5C 137.747,258.811 141.914,293.145 146,327.5C 147.631,341.133 148.798,354.799 149.5,368.5 Z"/></g>
<g><path style="opacity:1" fill="#efa51e" d="M 121.5,215.5 C 125.5,215.5 129.5,215.5 133.5,215.5C 133.5,217.167 133.5,218.833 133.5,220.5C 129.5,220.5 125.5,220.5 121.5,220.5C 121.5,218.833 121.5,217.167 121.5,215.5 Z"/></g>
<g><path style="opacity:1" fill="#f0a617" d="M 58.5,216.5 C 61.8333,216.5 65.1667,216.5 68.5,216.5C 68.5,218.167 68.5,219.833 68.5,221.5C 65.1667,221.5 61.8333,221.5 58.5,221.5C 58.5,219.833 58.5,218.167 58.5,216.5 Z"/></g>
<g><path style="opacity:1" fill="#fdb106" d="M 71.5,212.5 C 86.837,212.333 102.17,212.5 117.5,213C 110.54,264.267 103.706,315.767 97,367.5C 88.0643,315.886 79.5643,264.22 71.5,212.5 Z"/></g>
<g><path style="opacity:1" fill="#fbb008" d="M 148.5,384.5 C 149.662,403.662 149.829,422.996 149,442.5C 141.522,434.85 135.022,426.516 129.5,417.5C 130.721,413.946 130.721,410.446 129.5,407C 130.794,404.913 131.961,402.746 133,400.5C 138.342,395.325 143.509,389.991 148.5,384.5 Z"/></g>
<g><path style="opacity:1" fill="#e5a42d" d="M 55.5,363.5 C 56.6033,370.366 57.7699,377.366 59,384.5C 59.7172,385.044 60.2172,385.711 60.5,386.5C 60.5,387.167 60.8333,387.5 61.5,387.5C 64.1181,391.291 66.9514,394.957 70,398.5C 71.0731,405.636 71.9064,412.803 72.5,420C 71.3889,425.39 69.0556,430.223 65.5,434.5C 65.0766,435.265 64.7432,436.098 64.5,437C 65.9573,447.121 66.9573,457.287 67.5,467.5C 67.1667,467.5 66.8333,467.5 66.5,467.5C 65.6901,463.224 65.0234,458.891 64.5,454.5C 64.2532,446.356 63.9199,438.356 63.5,430.5C 62.8333,428.833 62.1667,427.167 61.5,425.5C 59.7195,418.412 58.7195,411.078 58.5,403.5C 58.2154,398.103 58.5488,392.77 59.5,387.5C 55.8536,379.993 54.5203,371.993 55.5,363.5 Z"/></g>
<g><path style="opacity:1" fill="#b17f3e" d="M 59.5,396.5 C 60.5629,400.639 61.2296,404.972 61.5,409.5C 59.8227,405.455 59.1561,401.122 59.5,396.5 Z"/></g>
<g><path style="opacity:1" fill="#cb9a3c" d="M 186.5,386.5 C 187.167,389.833 187.833,393.167 188.5,396.5C 188.5,397.5 188.5,398.5 188.5,399.5C 187.883,399.611 187.383,399.944 187,400.5C 186.811,404.767 185.977,408.767 184.5,412.5C 185.118,405.812 185.618,399.145 186,392.5C 181.002,398.516 178.502,405.183 178.5,412.5C 178.44,409.659 177.774,406.993 176.5,404.5C 178.808,397.879 182.142,391.879 186.5,386.5 Z"/></g>
<g><path style="opacity:1" fill="#f9b10e" d="M 171.5,418.5 C 171.5,415.167 171.5,411.833 171.5,408.5C 172.29,407.391 172.79,406.058 173,404.5C 176.015,406.188 177.182,408.855 176.5,412.5C 176.167,414.5 175.833,416.5 175.5,418.5C 174.135,419.807 172.802,419.807 171.5,418.5 Z"/></g>
<g><path style="opacity:1" fill="#a4620c" d="M 63.5,395.5 C 68.6789,401.745 71.0122,409.078 70.5,417.5C 69.3854,421.551 67.7187,425.217 65.5,428.5C 64.9804,417.49 64.3137,406.49 63.5,395.5 Z"/></g>
<g><path style="opacity:1" fill="#230900" d="M 63.5,395.5 C 64.3137,406.49 64.9804,417.49 65.5,428.5C 65.1667,429.5 64.5,430.167 63.5,430.5C 63.272,423.449 62.6053,416.449 61.5,409.5C 61.2296,404.972 60.5629,400.639 59.5,396.5C 58.9466,388.941 60.28,388.607 63.5,395.5 Z"/></g>
<g><path style="opacity:1" fill="#160501" d="M 184.5,412.5 C 183.422,417.986 182.589,423.652 182,429.5C 179.132,424.187 177.965,418.521 178.5,412.5C 178.502,405.183 181.002,398.516 186,392.5C 185.618,399.145 185.118,405.812 184.5,412.5 Z"/></g>
<g><path style="opacity:0.855" fill="#a4702c" d="M 52.5,393.5 C 56.3257,409.138 58.6591,425.138 59.5,441.5C 58.8333,439.5 58.1667,437.5 57.5,435.5C 57.8772,430.547 57.2105,425.881 55.5,421.5C 54.3359,412.187 53.3359,402.854 52.5,393.5 Z"/></g>
<g><path style="opacity:1" fill="#ae6505" d="M 52.5,378.5 C 54.1725,381.198 55.3392,384.198 56,387.5C 56.5196,393.025 57.3529,398.358 58.5,403.5C 58.7195,411.078 59.7195,418.412 61.5,425.5C 61.5276,430.862 61.1942,436.195 60.5,441.5C 60.1667,441.5 59.8333,441.5 59.5,441.5C 58.6591,425.138 56.3257,409.138 52.5,393.5C 52.5,388.5 52.5,383.5 52.5,378.5 Z"/></g>
<g><path style="opacity:0.176" fill="#dec7a6" d="M 55.5,421.5 C 57.2105,425.881 57.8772,430.547 57.5,435.5C 56.4794,431.02 55.8127,426.353 55.5,421.5 Z"/></g>
<g><path style="opacity:1" fill="#fcb108" d="M 177.5,466.5 C 178.167,466.5 178.833,466.5 179.5,466.5C 179.714,468.144 179.38,469.644 178.5,471C 169.979,471.46 161.646,472.293 153.5,473.5C 150.167,473.5 146.833,473.5 143.5,473.5C 117.833,473.5 92.1667,473.5 66.5,473.5C 66.5,471.5 66.5,469.5 66.5,467.5C 66.8333,467.5 67.1667,467.5 67.5,467.5C 68.5,467.5 69.5,467.5 70.5,467.5C 74.5,467.5 78.5,467.5 82.5,467.5C 80.3756,453.548 78.8756,439.548 78,425.5C 83.7092,431.54 89.0425,437.874 94,444.5C 94.2608,448.706 94.7608,452.873 95.5,457C 93.0842,458.474 92.0842,460.64 92.5,463.5C 93.552,463.649 94.552,463.483 95.5,463C 96.5418,461.082 97.7085,459.249 99,457.5C 100.512,460.857 103.012,462.857 106.5,463.5C 106.271,461.567 105.438,459.9 104,458.5C 103.333,453.833 103.333,449.167 104,444.5C 108.973,437.56 114.64,431.227 121,425.5C 122.861,423.112 124.194,420.446 125,417.5C 126.667,420.5 128.333,423.5 130,426.5C 136.066,432.73 141.566,439.396 146.5,446.5C 145.167,449.833 145.167,453.167 146.5,456.5C 144.266,458.381 142.933,460.715 142.5,463.5C 144.722,463.822 146.556,463.155 148,461.5C 148.494,463.134 148.66,464.801 148.5,466.5C 158.167,466.5 167.833,466.5 177.5,466.5 Z"/></g>
<g><path style="opacity:1" fill="#0f0403" d="M 179.5,453.5 C 178.518,457.316 177.851,461.316 177.5,465.5C 174.5,465.5 171.5,465.5 168.5,465.5C 169.25,452.838 169.916,440.172 170.5,427.5C 171.777,425.05 173.277,422.717 175,420.5C 176.804,425.58 178.804,430.58 181,435.5C 180.836,441.5 180.336,447.5 179.5,453.5 Z"/></g>
<g><path style="opacity:1" fill="#f3a91f" d="M 61.5,425.5 C 62.1667,427.167 62.8333,428.833 63.5,430.5C 63.9199,438.356 64.2532,446.356 64.5,454.5C 63.6773,451.023 63.1773,447.356 63,443.5C 62.6667,442.833 62.3333,442.167 62,441.5C 61.7216,442.416 61.2216,443.082 60.5,443.5C 60.5,442.833 60.5,442.167 60.5,441.5C 61.1942,436.195 61.5276,430.862 61.5,425.5 Z"/></g>
<g><path style="opacity:1" fill="#f5ac18" d="M 171.5,418.5 C 171.595,421.692 170.929,424.692 169.5,427.5C 169.443,428.609 169.11,429.609 168.5,430.5C 163.323,435.515 158.656,441.015 154.5,447C 155.799,450.135 155.799,453.301 154.5,456.5C 156.02,458.662 157.02,460.995 157.5,463.5C 156.448,463.649 155.448,463.483 154.5,463C 149.755,457.731 148.255,451.564 150,444.5C 151.147,445.458 152.147,445.125 153,443.5C 159.416,435.265 165.582,426.932 171.5,418.5 Z"/></g>
<g><path style="opacity:1" fill="#dea434" d="M 172.5,397.5 C 172.833,397.5 173.167,397.5 173.5,397.5C 173.935,400.157 174.935,402.491 176.5,404.5C 177.774,406.993 178.44,409.659 178.5,412.5C 177.965,418.521 179.132,424.187 182,429.5C 182.589,423.652 183.422,417.986 184.5,412.5C 185.977,408.767 186.811,404.767 187,400.5C 187.383,399.944 187.883,399.611 188.5,399.5C 187.209,408.116 186.209,416.783 185.5,425.5C 183.264,439.038 181.264,452.705 179.5,466.5C 178.833,466.5 178.167,466.5 177.5,466.5C 177.5,466.167 177.5,465.833 177.5,465.5C 178.222,465.082 178.722,464.416 179,463.5C 179.498,460.183 179.665,456.85 179.5,453.5C 180.336,447.5 180.836,441.5 181,435.5C 178.804,430.58 176.804,425.58 175,420.5C 173.277,422.717 171.777,425.05 170.5,427.5C 170.167,427.5 169.833,427.5 169.5,427.5C 170.929,424.692 171.595,421.692 171.5,418.5C 172.802,419.807 174.135,419.807 175.5,418.5C 175.833,416.5 176.167,414.5 176.5,412.5C 177.182,408.855 176.015,406.188 173,404.5C 172.79,406.058 172.29,407.391 171.5,408.5C 171.5,406.833 171.5,405.167 171.5,403.5C 172.461,401.735 172.795,399.735 172.5,397.5 Z"/></g>
<g><path style="opacity:0.055" fill="#e8d0a9" d="M 57.5,435.5 C 58.1667,437.5 58.8333,439.5 59.5,441.5C 60.4489,450.143 61.1155,458.81 61.5,467.5C 59.6912,457.03 58.3578,446.363 57.5,435.5 Z"/></g>
<g><path style="opacity:1" fill="#91611d" d="M 67.5,435.5 C 69.0109,437.476 69.8442,439.809 70,442.5C 70.3049,449.35 70.8049,456.184 71.5,463C 71.4857,464.385 71.1524,465.551 70.5,466.5C 69.2602,456.238 68.2602,445.904 67.5,435.5 Z"/></g>
<g><path style="opacity:1" fill="#8a5c1b" d="M 169.5,427.5 C 169.833,427.5 170.167,427.5 170.5,427.5C 169.916,440.172 169.25,452.838 168.5,465.5C 167.777,454.004 167.777,442.337 168.5,430.5C 169.11,429.609 169.443,428.609 169.5,427.5 Z"/></g>
<g><path style="opacity:0.898" fill="#98661d" d="M 59.5,441.5 C 59.8333,441.5 60.1667,441.5 60.5,441.5C 60.5,442.167 60.5,442.833 60.5,443.5C 62.3269,456.115 63.6603,468.782 64.5,481.5C 64.1667,481.5 63.8333,481.5 63.5,481.5C 63.7709,476.566 63.1042,471.9 61.5,467.5C 61.1155,458.81 60.4489,450.143 59.5,441.5 Z"/></g>
<g><path style="opacity:0.239" fill="#b0b0b2" d="M 189.5,449.5 C 189.187,454.353 188.521,459.02 187.5,463.5C 187.123,458.547 187.789,453.881 189.5,449.5 Z"/></g>
<g><path style="opacity:1" fill="#2d1002" d="M 65.5,434.5 C 66.1667,434.833 66.8333,435.167 67.5,435.5C 68.2602,445.904 69.2602,456.238 70.5,466.5C 70.5,466.833 70.5,467.167 70.5,467.5C 69.5,467.5 68.5,467.5 67.5,467.5C 66.9573,457.287 65.9573,447.121 64.5,437C 64.7432,436.098 65.0766,435.265 65.5,434.5 Z"/></g>
<g><path style="opacity:1" fill="#a97e39" d="M 179.5,453.5 C 179.665,456.85 179.498,460.183 179,463.5C 178.722,464.416 178.222,465.082 177.5,465.5C 177.851,461.316 178.518,457.316 179.5,453.5 Z"/></g>
<g><path style="opacity:1" fill="#ab6e10" d="M 185.5,425.5 C 184.72,438.52 183.72,451.52 182.5,464.5C 182.634,466.292 182.301,467.958 181.5,469.5C 180.9,470.9 179.9,471.9 178.5,472.5C 170.174,472.976 161.84,473.309 153.5,473.5C 161.646,472.293 169.979,471.46 178.5,471C 179.38,469.644 179.714,468.144 179.5,466.5C 181.264,452.705 183.264,439.038 185.5,425.5 Z"/></g>
<g><path style="opacity:1" fill="#0f0501" d="M 178.5,472.5 C 177.725,476.814 177.059,481.147 176.5,485.5C 165.679,486.495 154.679,486.828 143.5,486.5C 143.5,482.167 143.5,477.833 143.5,473.5C 146.833,473.5 150.167,473.5 153.5,473.5C 161.84,473.309 170.174,472.976 178.5,472.5 Z"/></g>
<g><path style="opacity:0.182" fill="#c8c7c5" d="M 187.5,463.5 C 187.326,470.224 186.659,476.891 185.5,483.5C 195.681,483.173 205.681,483.506 215.5,484.5C 205.167,484.5 194.833,484.5 184.5,484.5C 185.105,477.308 186.105,470.308 187.5,463.5 Z"/></g>
<g><path style="opacity:0.015" fill="#fefffe" d="M 215.5,484.5 C 216.488,489.64 216.821,494.974 216.5,500.5C 227.346,500.172 238.013,500.506 248.5,501.5C 237.5,501.5 226.5,501.5 215.5,501.5C 215.5,495.833 215.5,490.167 215.5,484.5 Z"/></g>
<g><path style="opacity:0.029" fill="#fcf6d0" d="M 61.5,467.5 C 63.1042,471.9 63.7709,476.566 63.5,481.5C 63.5,483.167 63.5,484.833 63.5,486.5C 53.1667,486.5 42.8333,486.5 32.5,486.5C 42.3194,485.506 52.3194,485.173 62.5,485.5C 62.4075,479.484 62.0742,473.484 61.5,467.5 Z"/></g>
<g><path style="opacity:0.634" fill="#b89255" d="M 63.5,481.5 C 63.8333,481.5 64.1667,481.5 64.5,481.5C 64.5,483.5 64.5,485.5 64.5,487.5C 53.5,487.5 42.5,487.5 31.5,487.5C 31.5,487.167 31.5,486.833 31.5,486.5C 31.8333,486.5 32.1667,486.5 32.5,486.5C 42.8333,486.5 53.1667,486.5 63.5,486.5C 63.5,484.833 63.5,483.167 63.5,481.5 Z"/></g>
<g><path style="opacity:1" fill="#734c1a" d="M 181.5,469.5 C 181.093,475.161 180.76,480.828 180.5,486.5C 191.167,486.5 201.833,486.5 212.5,486.5C 212.5,492.5 212.5,498.5 212.5,504.5C 211.511,499.025 211.178,493.358 211.5,487.5C 210.5,487.5 209.5,487.5 208.5,487.5C 198.833,487.5 189.167,487.5 179.5,487.5C 179.666,483.627 178.666,482.96 176.5,485.5C 177.059,481.147 177.725,476.814 178.5,472.5C 179.9,471.9 180.9,470.9 181.5,469.5 Z"/></g>
<g><path style="opacity:0.044" fill="#f8f2c8" d="M 31.5,486.5 C 31.5,486.833 31.5,487.167 31.5,487.5C 31.5,493.167 31.5,498.833 31.5,504.5C 20.8333,504.5 10.1667,504.5 -0.5,504.5C -0.5,504.167 -0.5,503.833 -0.5,503.5C 9.83333,503.5 20.1667,503.5 30.5,503.5C 30.1778,497.642 30.5111,491.975 31.5,486.5 Z"/></g>
<g><path style="opacity:1" fill="#a9650a" d="M 64.5,454.5 C 65.0234,458.891 65.6901,463.224 66.5,467.5C 66.5,469.5 66.5,471.5 66.5,473.5C 92.1667,473.5 117.833,473.5 143.5,473.5C 143.5,477.833 143.5,482.167 143.5,486.5C 154.679,486.828 165.679,486.495 176.5,485.5C 178.666,482.96 179.666,483.627 179.5,487.5C 189.167,487.5 198.833,487.5 208.5,487.5C 208.5,487.833 208.5,488.167 208.5,488.5C 210.45,493.735 211.117,499.402 210.5,505.5C 221.52,505.168 232.52,505.501 243.5,506.5C 244.632,513.783 244.799,521.117 244,528.5C 240.925,531.059 237.925,531.059 235,528.5C 234.501,522.843 234.334,517.176 234.5,511.5C 237.167,511.5 239.833,511.5 242.5,511.5C 242.714,509.856 242.38,508.356 241.5,507C 161.666,506.168 81.9989,506.334 2.5,507.5C 1.16667,508.833 1.16667,510.167 2.5,511.5C 2.5,517.833 2.5,524.167 2.5,530.5C 2.5,530.833 2.5,531.167 2.5,531.5C 2.5,531.833 2.5,532.167 2.5,532.5C 1.5,532.5 0.5,532.5 -0.5,532.5C -0.5,523.167 -0.5,513.833 -0.5,504.5C 10.1667,504.5 20.8333,504.5 31.5,504.5C 31.5,498.833 31.5,493.167 31.5,487.5C 42.5,487.5 53.5,487.5 64.5,487.5C 64.5,485.5 64.5,483.5 64.5,481.5C 63.6603,468.782 62.3269,456.115 60.5,443.5C 61.2216,443.082 61.7216,442.416 62,441.5C 62.3333,442.167 62.6667,442.833 63,443.5C 63.1773,447.356 63.6773,451.023 64.5,454.5 Z"/></g>
<g><path style="opacity:1" fill="#351900" d="M 34.5,493.5 C 34.5,496.5 34.5,499.5 34.5,502.5C 35.5,502.5 36.5,502.5 37.5,502.5C 91.5,502.5 145.5,502.5 199.5,502.5C 201.388,500.012 202.055,497.012 201.5,493.5C 201.833,493.5 202.167,493.5 202.5,493.5C 202.5,496.833 202.5,500.167 202.5,503.5C 146.167,503.5 89.8333,503.5 33.5,503.5C 33.1872,499.958 33.5206,496.625 34.5,493.5 Z"/></g>
<g><path style="opacity:1" fill="#170200" d="M 34.5,493.5 C 90.1667,493.5 145.833,493.5 201.5,493.5C 202.055,497.012 201.388,500.012 199.5,502.5C 200.779,499.998 200.779,497.498 199.5,495C 145.5,494.333 91.5,494.333 37.5,495C 36.3511,497.459 36.3511,499.959 37.5,502.5C 36.5,502.5 35.5,502.5 34.5,502.5C 34.5,499.5 34.5,496.5 34.5,493.5 Z"/></g>
<g><path style="opacity:1" fill="#030002" d="M 199.5,502.5 C 145.5,502.5 91.5,502.5 37.5,502.5C 36.3511,499.959 36.3511,497.459 37.5,495C 91.5,494.333 145.5,494.333 199.5,495C 200.779,497.498 200.779,499.998 199.5,502.5 Z"/></g>
<g><path style="opacity:1" fill="#e79e19" d="M 208.5,488.5 C 208.5,490.167 208.5,491.833 208.5,493.5C 206.5,493.5 204.5,493.5 202.5,493.5C 202.5,493.167 202.5,492.833 202.5,492.5C 204.167,492.5 205.833,492.5 207.5,492.5C 207.5,491.5 207.5,490.5 207.5,489.5C 149.833,489.5 92.1667,489.5 34.5,489.5C 34.5,490.5 34.5,491.5 34.5,492.5C 33.5655,491.432 33.2322,490.099 33.5,488.5C 91.8333,488.5 150.167,488.5 208.5,488.5 Z"/></g>
<g><path style="opacity:1" fill="#f7af16" d="M 202.5,492.5 C 146.5,492.5 90.5,492.5 34.5,492.5C 34.5,491.5 34.5,490.5 34.5,489.5C 92.1667,489.5 149.833,489.5 207.5,489.5C 207.5,490.5 207.5,491.5 207.5,492.5C 205.833,492.5 204.167,492.5 202.5,492.5 Z"/></g>
<g><path style="opacity:1" fill="#efa813" d="M 234.5,511.5 C 234.167,511.5 233.833,511.5 233.5,511.5C 229.167,511.5 224.833,511.5 220.5,511.5C 215.167,511.5 209.833,511.5 204.5,511.5C 203.833,511.5 203.167,511.5 202.5,511.5C 199.167,511.5 195.833,511.5 192.5,511.5C 173.167,511.5 153.833,511.5 134.5,511.5C 134.167,511.5 133.833,511.5 133.5,511.5C 90.0032,510.501 46.3365,510.168 2.5,510.5C 2.5,509.5 2.5,508.5 2.5,507.5C 81.9989,506.334 161.666,506.168 241.5,507C 242.38,508.356 242.714,509.856 242.5,511.5C 239.833,511.5 237.167,511.5 234.5,511.5 Z"/></g>
<g><path style="opacity:1" fill="#b68319" d="M 2.5,507.5 C 2.5,508.5 2.5,509.5 2.5,510.5C 46.3365,510.168 90.0032,510.501 133.5,511.5C 89.8333,511.5 46.1667,511.5 2.5,511.5C 1.16667,510.167 1.16667,508.833 2.5,507.5 Z"/></g>
<g><path style="opacity:1" fill="#ab6002" d="M 134.5,512.5 C 134.5,512.167 134.5,511.833 134.5,511.5C 153.833,511.5 173.167,511.5 192.5,511.5C 192.5,511.833 192.5,512.167 192.5,512.5C 192.167,512.5 191.833,512.5 191.5,512.5C 190.517,516.298 190.183,520.298 190.5,524.5C 174.819,524.833 159.152,524.499 143.5,523.5C 141.862,522.042 140.195,521.708 138.5,522.5C 137.02,519.241 136.02,515.908 135.5,512.5C 135.167,512.5 134.833,512.5 134.5,512.5 Z"/></g>
<g><path style="opacity:0.545" fill="#9d9ea4" d="M 248.5,501.5 C 249.222,501.918 249.722,502.584 250,503.5C 250.868,514.712 250.368,525.712 248.5,536.5C 248.5,527.833 248.5,519.167 248.5,510.5C 248.5,507.5 248.5,504.5 248.5,501.5 Z"/></g>
<g><path style="opacity:1" fill="#0b0000" d="M 2.5,511.5 C 46.1667,511.5 89.8333,511.5 133.5,511.5C 133.833,511.5 134.167,511.5 134.5,511.5C 134.5,511.833 134.5,512.167 134.5,512.5C 134.5,517.167 134.5,521.833 134.5,526.5C 153.833,526.5 173.167,526.5 192.5,526.5C 194.018,523.466 194.851,520.133 195,516.5C 195.879,513.654 197.546,512.987 200,514.5C 200.425,519.284 200.925,523.784 201.5,528C 208.158,528.5 214.825,528.666 221.5,528.5C 221.5,523.167 221.5,517.833 221.5,512.5C 225.167,512.5 228.833,512.5 232.5,512.5C 232.697,518.545 232.363,524.545 231.5,530.5C 157.167,530.5 82.8333,530.5 8.5,530.5C 9.26133,529.609 10.2613,528.942 11.5,528.5C 55.4588,529.661 99.4588,529.828 143.5,529C 139.911,528.793 136.411,528.293 133,527.5C 131.344,522.569 131.177,517.569 132.5,512.5C 89.5,512.5 46.5,512.5 3.5,512.5C 3.5,518.5 3.5,524.5 3.5,530.5C 3.16667,530.5 2.83333,530.5 2.5,530.5C 2.5,524.167 2.5,517.833 2.5,511.5 Z"/></g>
<g><path style="opacity:1" fill="#8f6234" d="M 134.5,512.5 C 134.833,512.5 135.167,512.5 135.5,512.5C 135.234,516.571 135.567,520.571 136.5,524.5C 154.821,525.5 173.155,525.833 191.5,525.5C 191.5,521.167 191.5,516.833 191.5,512.5C 191.833,512.5 192.167,512.5 192.5,512.5C 192.5,517.167 192.5,521.833 192.5,526.5C 173.167,526.5 153.833,526.5 134.5,526.5C 134.5,521.833 134.5,517.167 134.5,512.5 Z"/></g>
<g><path style="opacity:1" fill="#9c6213" d="M 135.5,512.5 C 136.02,515.908 137.02,519.241 138.5,522.5C 140.195,521.708 141.862,522.042 143.5,523.5C 159.152,524.499 174.819,524.833 190.5,524.5C 190.183,520.298 190.517,516.298 191.5,512.5C 191.5,516.833 191.5,521.167 191.5,525.5C 173.155,525.833 154.821,525.5 136.5,524.5C 135.567,520.571 135.234,516.571 135.5,512.5 Z"/></g>
<g><path style="opacity:1" fill="#010000" d="M 8.5,530.5 C 6.83333,530.5 5.16667,530.5 3.5,530.5C 3.5,524.5 3.5,518.5 3.5,512.5C 46.5,512.5 89.5,512.5 132.5,512.5C 131.177,517.569 131.344,522.569 133,527.5C 136.411,528.293 139.911,528.793 143.5,529C 99.4588,529.828 55.4588,529.661 11.5,528.5C 10.2613,528.942 9.26133,529.609 8.5,530.5 Z"/></g>
<g><path style="opacity:1" fill="#241306" d="M 192.5,511.5 C 195.833,511.5 199.167,511.5 202.5,511.5C 202.5,516.5 202.5,521.5 202.5,526.5C 208.5,526.5 214.5,526.5 220.5,526.5C 220.5,521.833 220.5,517.167 220.5,512.5C 220.5,512.167 220.5,511.833 220.5,511.5C 224.833,511.5 229.167,511.5 233.5,511.5C 233.5,518.167 233.5,524.833 233.5,531.5C 156.5,531.5 79.5,531.5 2.5,531.5C 2.5,531.167 2.5,530.833 2.5,530.5C 2.83333,530.5 3.16667,530.5 3.5,530.5C 5.16667,530.5 6.83333,530.5 8.5,530.5C 82.8333,530.5 157.167,530.5 231.5,530.5C 232.363,524.545 232.697,518.545 232.5,512.5C 228.833,512.5 225.167,512.5 221.5,512.5C 221.5,517.833 221.5,523.167 221.5,528.5C 214.825,528.666 208.158,528.5 201.5,528C 200.925,523.784 200.425,519.284 200,514.5C 197.546,512.987 195.879,513.654 195,516.5C 194.851,520.133 194.018,523.466 192.5,526.5C 192.5,521.833 192.5,517.167 192.5,512.5C 192.5,512.167 192.5,511.833 192.5,511.5 Z"/></g>
<g><path style="opacity:1" fill="#986320" d="M 202.5,511.5 C 203.167,511.5 203.833,511.5 204.5,511.5C 204.177,515.226 204.511,518.893 205.5,522.5C 209.698,523.809 213.864,523.809 218,522.5C 217.917,518.689 218.75,515.355 220.5,512.5C 220.5,517.167 220.5,521.833 220.5,526.5C 214.5,526.5 208.5,526.5 202.5,526.5C 202.5,521.5 202.5,516.5 202.5,511.5 Z"/></g>
<g><path style="opacity:1" fill="#aa6103" d="M 204.5,511.5 C 209.833,511.5 215.167,511.5 220.5,511.5C 220.5,511.833 220.5,512.167 220.5,512.5C 218.75,515.355 217.917,518.689 218,522.5C 213.864,523.809 209.698,523.809 205.5,522.5C 204.511,518.893 204.177,515.226 204.5,511.5 Z"/></g>
<g><path style="opacity:1" fill="#8b6237" d="M 208.5,488.5 C 208.5,488.167 208.5,487.833 208.5,487.5C 209.5,487.5 210.5,487.5 211.5,487.5C 211.178,493.358 211.511,499.025 212.5,504.5C 223.5,504.5 234.5,504.5 245.5,504.5C 245.5,513.167 245.5,521.833 245.5,530.5C 164.84,532.497 83.8402,533.164 2.5,532.5C 2.5,532.167 2.5,531.833 2.5,531.5C 79.5,531.5 156.5,531.5 233.5,531.5C 233.5,524.833 233.5,518.167 233.5,511.5C 233.833,511.5 234.167,511.5 234.5,511.5C 234.334,517.176 234.501,522.843 235,528.5C 237.925,531.059 240.925,531.059 244,528.5C 244.799,521.117 244.632,513.783 243.5,506.5C 232.52,505.501 221.52,505.168 210.5,505.5C 211.117,499.402 210.45,493.735 208.5,488.5 Z"/></g>
<g><path style="opacity:0.774" fill="#1b110d" d="M 248.5,510.5 C 248.5,519.167 248.5,527.833 248.5,536.5C 248.5,536.833 248.5,537.167 248.5,537.5C 241.167,537.5 233.833,537.5 226.5,537.5C 193.167,536.167 159.833,536.167 126.5,537.5C 125.5,537.5 124.5,537.5 123.5,537.5C 104.5,536.167 85.5,536.167 66.5,537.5C 61.1667,537.5 55.8333,537.5 50.5,537.5C 40.8333,536.167 31.1667,536.167 21.5,537.5C 17.1667,537.5 12.8333,537.5 8.5,537.5C 5.7131,536.523 2.7131,536.19 -0.5,536.5C -0.5,535.167 -0.5,533.833 -0.5,532.5C 0.5,532.5 1.5,532.5 2.5,532.5C 83.8402,533.164 164.84,532.497 245.5,530.5C 246.328,524.347 246.828,518.013 247,511.5C 247.383,510.944 247.883,510.611 248.5,510.5 Z"/></g>
</svg>
